<?xml version="1.0" standalone="no"?>
<!DOCTYPE svg PUBLIC "-//W3C//DTD SVG 20010904//EN"
 "http://www.w3.org/TR/2001/REC-SVG-20010904/DTD/svg10.dtd">
<svg version="1.0" xmlns="http://www.w3.org/2000/svg"
 width="2153.000000pt" height="2153.000000pt" viewBox="0 0 2153.000000 2153.000000"
 preserveAspectRatio="xMidYMid meet">
<metadata>
Created by potrace 1.14, written by Peter Selinger 2001-2017
</metadata>
<g transform="translate(0.000000,2153.000000) scale(0.100000,-0.100000)"
fill="#000000" stroke="none">
<path d="M10709 19996 c-2 -3 -16 -7 -29 -9 -14 -3 -36 -8 -50 -11 -14 -3 -36
-8 -50 -11 -14 -2 -43 -9 -65 -14 -22 -5 -51 -12 -65 -15 -14 -2 -137 -30
-275 -61 -137 -31 -259 -59 -270 -60 -16 -3 -226 -50 -320 -71 -11 -3 -29 -7
-40 -9 -11 -3 -132 -30 -270 -61 -137 -31 -261 -58 -274 -60 -19 -4 -87 -19
-171 -39 -8 -2 -49 -11 -90 -20 -41 -9 -82 -18 -90 -20 -8 -2 -168 -38 -355
-79 -187 -42 -349 -79 -360 -81 -58 -13 -155 -35 -176 -39 -13 -3 -33 -7 -44
-10 -11 -2 -54 -12 -95 -21 -93 -20 -68 -15 -310 -70 -113 -26 -216 -49 -230
-51 -14 -3 -54 -12 -90 -20 -36 -9 -76 -18 -89 -20 -12 -3 -53 -12 -90 -20
-36 -9 -75 -18 -86 -20 -11 -2 -31 -6 -45 -9 -14 -3 -34 -7 -45 -9 -11 -3 -60
-14 -109 -26 -50 -11 -106 -23 -125 -26 -20 -3 -39 -8 -42 -10 -3 -2 -50 -13
-104 -24 -53 -12 -107 -24 -119 -26 -11 -3 -32 -7 -46 -10 -14 -3 -52 -11 -85
-19 -83 -20 -319 -73 -347 -79 -13 -2 -77 -16 -143 -31 -66 -15 -187 -42 -270
-60 -752 -167 -969 -216 -974 -219 -3 -2 -22 -7 -41 -10 -31 -5 -367 -78 -495
-108 -27 -7 -52 -13 -55 -13 -3 -1 -32 -7 -65 -14 -33 -8 -64 -14 -70 -15 -16
-3 -204 -46 -270 -61 -33 -8 -71 -16 -85 -19 -14 -3 -43 -10 -65 -15 -22 -5
-51 -12 -65 -15 -14 -2 -209 -46 -435 -96 -225 -51 -417 -93 -425 -95 -8 -2
-98 -22 -200 -45 -102 -23 -194 -44 -205 -46 -11 -2 -76 -16 -145 -32 l-125
-28 -5 -3929 c-3 -2162 -6 -3931 -8 -3933 -1 -2 -10 -2 -19 0 -10 2 -17 -3
-16 -9 2 -7 -4 -13 -12 -13 -8 0 -15 -5 -15 -11 0 -5 -5 -7 -12 -3 -8 5 -9 2
-5 -9 3 -9 3 -16 -1 -16 -21 3 -32 -2 -26 -13 5 -8 2 -9 -9 -5 -10 3 -17 2
-17 -4 0 -6 -6 -7 -12 -3 -8 5 -7 0 2 -11 9 -11 10 -16 3 -11 -8 4 -13 2 -13
-6 0 -9 -3 -9 -10 2 -8 13 -10 13 -10 -2 0 -12 -5 -16 -17 -11 -10 3 -15 3
-11 -2 9 -10 -21 -34 -43 -35 -9 0 -22 -7 -29 -15 -7 -8 -16 -13 -20 -10 -5 3
-11 1 -15 -5 -4 -6 -11 -8 -16 -5 -5 3 -6 0 -3 -8 6 -16 -22 -31 -38 -20 -7 3
-8 1 -4 -5 4 -7 1 -12 -9 -12 -9 0 -14 -4 -10 -9 5 -8 -25 -24 -48 -26 -4 0
-12 -7 -18 -15 -9 -13 -10 -12 -5 2 3 10 0 20 -6 24 -6 4 -9 3 -6 -2 7 -11
-17 -35 -26 -27 -3 4 -6 1 -6 -6 0 -7 -4 -9 -10 -6 -5 3 -10 1 -10 -4 0 -6 -5
-11 -11 -11 -5 0 -7 5 -3 11 3 6 -5 3 -19 -6 -15 -9 -31 -14 -37 -10 -6 3 -10
-3 -10 -17 0 -18 -2 -20 -9 -9 -8 13 -12 13 -27 0 -16 -12 -17 -12 -10 1 4 8
-1 4 -12 -9 -13 -16 -21 -20 -26 -12 -6 9 -11 9 -22 0 -11 -9 -14 -8 -14 2 0
11 -2 11 -9 -1 -6 -8 -7 -18 -4 -24 3 -5 1 -6 -6 -2 -6 4 -9 11 -6 16 3 4 -4
6 -15 3 -11 -3 -17 -10 -13 -17 4 -6 -2 -4 -12 4 -11 9 -16 10 -11 3 4 -8 1
-13 -8 -13 -9 0 -16 5 -16 10 0 6 -6 5 -14 -2 -8 -7 -12 -15 -11 -18 2 -3 -5
-6 -16 -6 -10 0 -19 3 -19 7 0 8 -53 5 -67 -4 -6 -4 -30 -8 -52 -9 l-41 -1 0
-4074 0 -4073 10225 0 10225 0 0 4121 c0 3659 -2 4120 -15 4115 -8 -3 -15 -1
-15 4 0 6 -7 10 -16 10 -9 0 -12 5 -8 13 5 7 0 6 -11 -3 -10 -8 -16 -10 -12
-4 6 10 -44 29 -65 25 -5 0 -8 6 -8 14 0 8 -3 14 -7 14 -21 -3 -33 2 -27 12 4
7 -1 7 -16 -1 -20 -11 -22 -10 -17 4 3 8 2 18 -3 21 -4 3 -11 -1 -13 -7 -4
-10 -6 -10 -6 0 -1 6 -8 12 -17 12 -9 0 -12 5 -8 13 5 7 0 6 -11 -3 -11 -9
-16 -10 -11 -2 4 7 1 12 -9 12 -9 0 -13 5 -9 11 4 7 1 10 -7 7 -7 -2 -22 5
-32 16 -10 12 -15 14 -11 6 4 -8 -3 -5 -15 8 -12 12 -26 22 -31 22 -5 0 -20
11 -34 25 -17 17 -26 21 -30 12 -4 -7 -4 -1 -2 11 3 13 2 21 -1 18 -4 -3 -13
0 -22 7 -14 11 -15 10 -1 -8 14 -19 14 -19 -2 -6 -10 7 -18 20 -18 27 0 8 -6
11 -17 7 -10 -3 -15 -3 -11 2 10 11 -32 46 -45 38 -5 -3 -7 -1 -4 4 7 11 -21
40 -32 36 -3 -2 -6 3 -6 10 0 6 -8 11 -16 11 -12 -1 -15 5 -11 19 4 15 2 18
-8 12 -10 -6 -12 -4 -6 10 6 16 4 16 -11 4 -11 -9 -14 -10 -9 -1 4 6 2 12 -3
12 -6 0 -10 6 -8 13 1 6 -2 11 -8 10 -5 0 -16 5 -23 13 -7 8 -10 14 -7 14 3 0
1 9 -5 21 -7 12 -18 18 -26 15 -9 -3 -12 -1 -9 4 3 6 0 10 -7 10 -10 0 -10 2
1 9 11 7 9 10 -9 16 -16 5 -19 9 -10 15 9 6 7 10 -8 15 -12 3 -21 9 -21 13 3
20 -3 32 -16 32 -8 0 -12 6 -9 14 3 8 0 17 -7 22 -8 5 -10 3 -4 -6 5 -9 4 -11
-4 -6 -9 6 -9 11 1 24 11 13 10 15 -5 9 -11 -4 -16 -3 -12 3 3 6 -1 13 -10 16
-13 5 -13 9 -3 22 10 12 10 14 1 8 -12 -6 -18 5 -14 27 0 4 -7 7 -17 7 -14 0
-15 2 -2 10 12 8 12 10 -5 11 -11 0 -15 3 -8 6 10 3 10 7 0 18 -7 7 -16 11
-20 8 -5 -3 -4 4 2 16 10 18 9 20 -5 14 -12 -4 -15 -3 -10 5 4 7 2 12 -4 12
-7 0 -9 9 -5 23 5 20 5 20 -9 -3 -8 -14 -12 -28 -10 -32 3 -5 0 -8 -5 -8 -8 0
-12 1096 -13 3662 l-3 3662 -30 8 c-16 4 -41 9 -55 12 -35 6 -203 44 -221 50
-8 3 -27 7 -44 9 -16 3 -48 9 -70 15 -22 6 -51 13 -65 16 -14 2 -117 25 -229
50 -112 26 -220 49 -240 52 -20 3 -39 8 -42 9 -5 4 -209 51 -254 59 -11 2 -60
13 -110 25 -88 21 -170 39 -270 62 -27 6 -57 12 -65 14 -8 2 -148 33 -310 69
-162 37 -304 68 -315 70 -11 2 -49 11 -85 19 -61 15 -165 39 -320 73 -36 8
-74 17 -85 20 -11 2 -33 7 -50 10 -16 2 -48 10 -70 16 -22 5 -51 12 -65 14
-14 3 -33 7 -42 10 -10 3 -28 7 -40 10 -46 8 -66 12 -129 28 -68 16 -242 55
-474 106 -77 17 -178 40 -224 51 -46 11 -105 24 -130 29 -25 5 -156 34 -291
65 -135 31 -256 58 -270 61 -14 3 -54 12 -90 20 -36 9 -76 18 -90 20 -14 3
-92 20 -175 39 -82 19 -161 37 -175 39 -14 2 -56 12 -95 21 -38 9 -79 19 -90
21 -11 2 -41 8 -66 14 -26 6 -53 13 -60 14 -8 2 -25 6 -39 9 -24 6 -413 94
-455 102 -11 3 -153 34 -315 71 -162 36 -302 67 -310 69 -8 2 -37 9 -65 15
-72 17 -73 17 -155 35 -99 22 -95 21 -171 39 -37 8 -78 17 -90 20 -21 4 -612
136 -834 187 -44 10 -91 20 -105 23 -14 2 -85 18 -159 35 -139 32 -157 36
-206 46 -16 3 -46 10 -65 15 -19 5 -46 11 -60 14 -14 3 -65 15 -115 26 -49 11
-121 27 -160 36 -38 8 -77 17 -85 19 -8 2 -69 15 -135 29 -66 15 -129 29 -140
32 -38 10 -81 15 -86 10z m-9489 -10116 c0 -5 -5 -10 -11 -10 -5 0 -7 5 -4 10
3 6 8 10 11 10 2 0 4 -4 4 -10z"/>
<path d="M1090 9825 c-11 -13 -10 -14 4 -9 9 3 16 10 16 15 0 13 -6 11 -20 -6z"/>
</g>
</svg>
