<?xml version="1.0" standalone="no"?>
<!DOCTYPE svg PUBLIC "-//W3C//DTD SVG 20010904//EN"
 "http://www.w3.org/TR/2001/REC-SVG-20010904/DTD/svg10.dtd">
<svg version="1.0" xmlns="http://www.w3.org/2000/svg"
 width="361.000000pt" height="361.000000pt" viewBox="0 0 361.000000 361.000000"
 preserveAspectRatio="xMidYMid meet">
<metadata>
Created by potrace 1.14, written by Peter Selinger 2001-2017
</metadata>
<g transform="translate(0.000000,361.000000) scale(0.100000,-0.100000)"
fill="#000000" stroke="none">
<path d="M1620 3600 c-183 -23 -316 -58 -485 -127 -390 -160 -707 -449 -905
-825 -137 -261 -190 -468 -197 -775 -5 -167 -2 -210 16 -320 12 -71 30 -155
40 -188 10 -33 26 -86 35 -118 21 -69 99 -239 157 -339 84 -145 273 -382 372
-467 160 -136 253 -193 497 -299 184 -80 410 -123 650 -123 287 0 540 57 790
178 554 268 923 803 991 1438 26 245 -20 576 -116 831 -87 231 -267 491 -466
675 -258 239 -563 388 -908 445 -109 18 -373 26 -471 14z m605 -85 c131 -34
312 -106 308 -122 -1 -5 9 -9 23 -9 13 -1 45 -16 71 -33 25 -17 52 -31 59 -31
16 0 128 -74 194 -129 119 -100 247 -240 321 -352 101 -152 201 -337 232 -430
51 -150 96 -376 103 -519 6 -108 -9 -349 -24 -390 -8 -22 -10 -20 -41 29 -17
29 -29 56 -26 62 4 5 -7 8 -25 7 -26 -2 -35 -10 -52 -43 -24 -47 -72 -95 -97
-95 -9 0 -26 7 -37 15 -10 8 -27 15 -36 15 -22 0 -98 67 -98 86 0 8 -7 14 -15
14 -8 0 -15 -4 -15 -9 0 -18 -81 -99 -122 -121 -63 -33 -92 -17 -136 73 -27
57 -35 66 -50 58 -23 -12 -81 -70 -100 -99 -51 -77 -153 -58 -202 39 -13 24
-28 39 -39 39 -9 0 -41 -23 -69 -51 -47 -46 -55 -51 -85 -45 -47 9 -79 36
-106 89 -13 26 -29 47 -37 47 -8 0 -25 -17 -38 -38 -34 -54 -90 -94 -140 -99
-60 -7 -102 25 -146 111 -38 75 -40 75 -82 -2 -12 -22 -36 -40 -85 -62 -59
-27 -72 -30 -103 -21 -20 6 -58 33 -87 62 l-52 51 -63 -66 c-58 -60 -67 -66
-105 -66 -37 0 -42 3 -57 34 -9 19 -16 40 -16 48 0 17 -20 38 -36 38 -7 0 -25
-18 -41 -40 -27 -38 -123 -100 -157 -100 -42 0 -83 33 -121 101 -22 37 -43 69
-47 69 -3 0 -20 -21 -37 -47 -16 -27 -37 -58 -46 -70 -18 -26 -83 -48 -117
-39 -33 8 -88 60 -88 82 0 30 -48 124 -63 124 -7 0 -31 -34 -52 -76 -21 -41
-49 -84 -63 -95 -38 -29 -96 -44 -134 -33 -32 9 -33 11 -40 79 -5 39 -12 100
-18 138 -13 84 -13 270 -1 334 5 26 15 77 21 113 34 192 64 285 141 442 61
123 67 132 158 258 134 184 294 341 431 425 80 49 330 172 365 181 17 4 35 10
40 14 36 27 265 81 395 94 25 2 135 2 245 1 192 -4 206 -5 340 -40z m-1823
-1970 c3 -13 1 -22 -4 -19 -5 3 -16 -2 -23 -12 -19 -25 -19 -14 1 24 19 38 20
39 26 7z m1378 -49 c0 -6 -4 -5 -9 3 -5 7 -14 10 -20 7 -13 -8 -14 -4 -4 20 6
16 7 16 20 -2 7 -10 13 -23 13 -28z m-1020 13 c0 -6 -4 -7 -10 -4 -5 3 -10 11
-10 16 0 6 5 7 10 4 6 -3 10 -11 10 -16z m2660 -3 c0 -2 -8 -10 -17 -17 -16
-13 -17 -12 -4 4 13 16 21 21 21 13z m-307 -20 c25 -19 21 -26 -8 -13 -14 7
-25 15 -25 20 0 11 13 8 33 -7z m-2769 -22 c3 -8 2 -13 -2 -10 -5 3 -25 -6
-45 -20 -20 -14 -37 -20 -37 -15 0 8 57 52 76 60 1 1 5 -6 8 -15z m3148 -73
c-4 -11 -7 -10 -13 5 -4 10 -19 30 -33 43 -14 14 -26 28 -26 33 0 4 17 -9 39
-30 23 -21 36 -43 33 -51z m-2152 75 c0 -3 -4 -8 -10 -11 -5 -3 -10 -1 -10 4
0 6 5 11 10 11 6 0 10 -2 10 -4z m824 -4 c3 -5 -1 -9 -9 -9 -8 0 -15 4 -15 9
0 4 4 8 9 8 6 0 12 -4 15 -8z m651 -39 l28 -38 -31 29 c-18 17 -32 33 -32 38
0 15 7 9 35 -29z m-2384 18 c-9 -6 -12 -18 -8 -32 5 -20 5 -21 -10 -6 -19 19
-11 47 14 47 14 0 15 -2 4 -9z m2923 -12 c-10 -12 -18 -24 -17 -28 1 -3 -1 -8
-3 -10 -2 -2 -4 1 -4 8 0 9 -5 9 -21 1 -11 -7 -23 -9 -26 -7 -2 3 12 13 31 22
20 10 39 21 42 26 3 5 8 9 11 9 3 0 -2 -9 -13 -21z m-2824 1 c0 -5 -2 -10 -4
-10 -3 0 -8 5 -11 10 -3 6 -1 10 4 10 6 0 11 -4 11 -10z m-140 -25 c0 -14 -4
-25 -9 -25 -5 0 -8 11 -7 25 1 33 16 33 16 0z m247 10 c-18 -13 -18 -14 3 -35
15 -15 19 -25 12 -32 -11 -11 8 -56 30 -69 7 -4 9 -11 4 -16 -4 -4 -12 0 -17
10 -6 9 -17 17 -25 17 -8 0 -14 6 -13 13 3 25 -1 38 -11 32 -5 -3 -10 -17 -10
-31 0 -18 -5 -24 -22 -23 -13 0 -17 3 -10 6 6 2 12 18 12 35 0 17 7 36 17 43
18 13 10 35 -13 35 -8 0 -14 4 -14 9 0 8 19 14 65 19 6 1 2 -5 -8 -13z m-462
-5 c5 -8 11 -8 20 0 9 8 15 8 20 0 6 -10 -13 -15 -49 -11 -14 1 -17 -4 -13
-19 3 -11 1 -20 -4 -20 -5 0 -9 3 -9 8 0 4 -3 17 -6 30 -5 17 -2 22 14 22 12
0 24 -5 27 -10z m185 -25 c0 -5 -5 -3 -10 5 -5 8 -10 20 -10 25 0 6 5 3 10 -5
5 -8 10 -19 10 -25z m850 31 c0 -2 -11 -6 -25 -8 -13 -3 -22 -1 -19 3 5 9 44
13 44 5z m1120 0 c0 -3 -4 -8 -10 -11 -5 -3 -10 -1 -10 4 0 6 5 11 10 11 6 0
10 -2 10 -4z m-936 -21 c-4 -8 -10 -15 -15 -15 -5 0 -9 7 -9 15 0 8 7 15 15
15 9 0 12 -6 9 -15z m546 5 c0 -5 -2 -10 -4 -10 -3 0 -8 5 -11 10 -3 6 -1 10
4 10 6 0 11 -4 11 -10z m1000 -20 c-24 -15 -37 -11 -16 5 11 8 22 12 25 9 3
-3 -1 -9 -9 -14z m-2645 1 c3 -5 2 -12 -3 -15 -5 -3 -9 1 -9 9 0 17 3 19 12 6z
m885 -1 c0 -5 -5 -10 -11 -10 -5 0 -7 5 -4 10 3 6 8 10 11 10 2 0 4 -4 4 -10z
m928 -10 c15 0 22 -5 19 -12 -2 -7 -11 -12 -21 -10 -18 3 -22 -14 -4 -20 6 -2
8 -10 4 -16 -10 -17 -26 -15 -26 4 0 8 -4 12 -10 9 -6 -4 -7 1 -3 11 4 11 3
15 -5 10 -6 -3 -13 -2 -17 4 -3 5 -1 10 4 10 6 0 11 8 11 17 0 13 3 14 12 5 7
-7 23 -12 36 -12z m792 16 c0 -3 -4 -8 -10 -11 -5 -3 -10 -1 -10 4 0 6 5 11
10 11 6 0 10 -2 10 -4z m160 -6 c0 -5 -5 -10 -11 -10 -5 0 -7 5 -4 10 3 6 8
10 11 10 2 0 4 -4 4 -10z m-2104 -15 c-8 -8 -18 -15 -22 -15 -3 0 -1 7 6 15 7
8 17 15 22 15 5 0 3 -7 -6 -15z m-545 -16 c6 -10 11 -11 17 -3 11 18 73 23 79
7 8 -19 -6 -30 -17 -14 -4 8 -15 11 -25 7 -13 -5 -15 -13 -10 -38 6 -27 5 -31
-6 -20 -7 6 -17 12 -22 12 -4 0 -5 -6 -2 -12 4 -7 -2 -3 -13 10 -11 12 -26 20
-34 17 -9 -4 -14 4 -15 25 -2 25 1 29 18 27 11 -2 25 -10 30 -18z m959 14 c-1
-14 -30 -47 -36 -41 -3 3 3 16 13 27 19 23 23 25 23 14z m60 -5 c0 -14 -16
-16 -33 -3 -17 12 -16 13 7 11 15 0 26 -4 26 -8z m104 -4 c32 -32 6 -76 -30
-49 -16 13 -17 16 -4 25 12 8 10 10 -9 10 -20 0 -21 2 -11 15 16 19 35 19 54
-1z m79 9 c-25 -5 -29 -19 -13 -43 9 -13 11 -13 19 0 9 12 11 12 17 -3 4 -11
0 -25 -11 -37 -15 -16 -15 -22 -5 -35 10 -13 9 -15 -8 -15 -11 0 -25 -7 -32
-15 -7 -8 -18 -15 -24 -15 -6 0 -2 7 9 16 11 8 21 27 22 41 2 26 2 26 -18 -6
-12 -20 -24 -30 -29 -25 -13 13 -1 54 16 54 8 0 11 6 8 15 -3 8 -2 20 2 27 9
13 10 18 13 38 0 6 13 9 29 9 23 -2 24 -2 5 -6z m-1347 -28 c10 -39 0 -50 -19
-21 -17 26 -16 46 3 46 5 0 12 -11 16 -25z m2520 -11 c-4 -16 0 -33 10 -47
l16 -22 -7 23 c-5 17 -2 22 10 22 12 0 15 -5 11 -16 -4 -9 -1 -23 5 -30 6 -7
9 -19 6 -26 -4 -8 -6 -7 -6 5 -1 9 -8 17 -16 17 -8 0 -19 9 -25 20 -6 11 -16
20 -22 20 -7 0 -7 -4 1 -14 9 -10 8 -16 -4 -26 -8 -7 -15 -21 -15 -31 0 -10
-5 -21 -10 -24 -6 -4 -8 -15 -5 -26 11 -33 -10 -21 -27 16 -8 19 -12 35 -7 35
5 0 9 -5 9 -11 0 -8 5 -8 15 1 8 7 15 21 15 30 0 10 6 21 13 23 9 4 9 6 -1 6
-8 1 -16 -8 -19 -19 l-6 -21 -14 21 c-14 19 -10 61 3 47 7 -7 34 17 34 30 0
14 22 33 32 27 5 -4 7 -17 4 -30z m-2466 16 c0 -5 -8 -10 -17 -10 -15 0 -16 2
-3 10 19 12 20 12 20 0z m230 1 c0 -5 -7 -11 -15 -15 -15 -5 -20 5 -8 17 9 10
23 9 23 -2z m741 -18 c15 -37 19 -74 8 -67 -5 3 -9 -2 -9 -10 0 -21 -26 -21
-34 0 -9 22 -8 24 8 18 8 -3 17 0 22 7 4 8 3 10 -4 5 -7 -4 -12 -2 -12 3 0 6
5 11 11 11 6 0 8 7 5 15 -3 8 -9 22 -12 30 -3 8 -3 15 0 15 4 0 11 -12 17 -27z
m449 -20 c0 -7 5 -13 10 -13 6 0 10 -7 10 -15 0 -18 -12 -19 -28 -3 -9 9 -18
9 -36 0 -22 -10 -24 -9 -19 6 4 9 11 20 17 24 6 4 1 6 -12 5 -12 0 -25 -10
-28 -20 -3 -10 -8 -16 -11 -14 -2 3 3 19 12 36 13 27 19 30 35 21 16 -9 20 -7
20 7 1 17 2 16 15 -1 8 -11 15 -26 15 -33z m127 32 c8 -23 -1 -27 -33 -15 -23
9 -25 13 -14 20 22 14 40 12 47 -5z m33 5 c0 -5 -4 -10 -10 -10 -5 0 -10 5
-10 10 0 6 5 10 10 10 6 0 10 -4 10 -10z m1575 -29 c-4 -17 -10 -29 -15 -26
-5 3 -12 -1 -17 -9 -10 -18 -45 -25 -50 -10 -2 6 5 14 17 17 12 3 20 13 20 27
0 17 4 21 20 17 14 -3 20 0 20 11 0 8 3 13 6 9 3 -3 3 -19 -1 -36z m-3274 17
c21 13 26 3 7 -16 -9 -9 -9 -12 2 -12 8 0 4 -8 -10 -20 l-23 -20 26 0 c14 0
31 8 36 18 10 16 10 16 11 -1 0 -10 -7 -20 -15 -23 -9 -4 -13 -16 -11 -35 2
-16 -1 -29 -6 -29 -5 0 -3 -10 4 -22 7 -13 11 -26 10 -30 -1 -5 4 -7 10 -5 7
1 12 -4 10 -11 -3 -15 24 -70 46 -91 13 -13 14 -13 8 6 -4 13 -1 25 9 33 13
11 15 8 13 -16 -1 -16 -5 -34 -10 -40 -4 -6 1 -19 15 -31 25 -23 58 -27 50 -6
-4 10 -9 11 -19 2 -11 -9 -14 -8 -14 5 0 9 -1 19 -2 23 -5 11 46 11 60 1 6 -6
12 -7 12 -4 0 4 7 0 16 -8 9 -9 13 -24 9 -35 -3 -11 -1 -22 5 -26 5 -3 11 -16
11 -28 1 -17 2 -18 6 -4 6 23 11 22 39 -8 13 -14 28 -25 34 -25 5 0 10 -7 10
-15 0 -11 5 -12 25 -5 16 6 25 6 25 0 0 -6 -5 -10 -10 -10 -6 0 -8 -10 -4 -24
8 -34 -3 -51 -24 -34 -14 11 -15 10 -9 -5 4 -10 7 -23 7 -29 0 -24 31 17 40
54 11 40 47 85 58 73 4 -4 -1 -13 -11 -20 -10 -7 -17 -17 -16 -21 1 -5 -3 -21
-9 -36 -11 -27 -8 -51 10 -75 10 -13 38 -7 38 8 0 4 -7 6 -15 3 -8 -4 -15 -1
-15 5 0 10 14 15 33 12 5 -1 6 3 3 8 -8 13 25 82 38 78 5 -2 12 -9 14 -17 3
-8 0 -10 -9 -5 -12 7 -12 6 -1 -6 11 -12 15 -11 26 4 16 20 26 22 26 4 0 -8
-11 -19 -24 -25 -19 -8 -23 -16 -19 -34 3 -13 10 -28 15 -35 6 -7 4 -13 -4
-15 -11 -4 -11 -8 0 -20 10 -13 9 -18 -3 -28 -12 -10 -15 -10 -15 4 0 17 -15
22 -24 7 -3 -5 8 -15 25 -24 l31 -15 -21 -21 c-11 -11 -21 -27 -21 -34 0 -8 3
-8 9 2 5 8 16 11 26 8 13 -6 15 -3 10 14 -9 29 16 21 30 -9 5 -12 16 -22 23
-22 10 0 10 4 -2 16 -18 17 -20 32 -7 53 8 12 12 12 24 2 11 -9 17 -9 22 -1 4
6 12 9 19 7 6 -2 20 -1 31 4 18 7 18 8 1 8 -12 1 -16 6 -12 17 3 9 6 19 6 24
0 4 9 10 20 13 12 3 20 14 20 27 0 13 4 19 11 14 6 -3 9 -19 5 -35 -3 -15 -1
-31 4 -34 9 -6 15 30 11 62 -1 8 8 12 27 9 26 -3 28 0 29 30 1 24 -3 31 -13
27 -8 -3 -14 -11 -14 -19 0 -8 -4 -14 -10 -14 -5 0 -10 7 -10 15 0 8 4 15 8
15 4 0 16 13 25 30 17 28 17 30 -1 41 -22 14 -18 49 4 49 8 0 14 2 14 4 0 2 3
13 6 23 6 15 4 16 -7 6 -7 -7 -18 -13 -24 -13 -5 0 1 9 15 19 13 11 28 17 32
15 4 -3 8 -1 8 4 0 6 -7 13 -16 16 -9 4 -14 9 -11 12 3 3 15 1 26 -6 17 -8 19
-15 11 -29 -7 -14 -5 -24 9 -40 23 -26 31 -27 24 -1 -3 11 -9 20 -14 20 -5 0
-9 5 -9 10 0 6 7 10 15 10 9 0 12 6 9 15 -4 8 -1 15 5 15 6 0 11 11 11 25 0
14 -4 25 -10 25 -5 0 -10 4 -10 10 0 5 6 9 12 7 23 -4 38 -25 31 -43 -5 -14
-1 -16 30 -12 40 4 46 -2 20 -23 -13 -11 -17 -11 -20 -1 -3 6 -9 10 -14 6 -15
-9 -10 -24 9 -24 11 0 18 -8 19 -22 2 -21 1 -22 -11 -5 -16 21 -38 23 -30 2 4
-8 2 -15 -4 -15 -6 0 -12 6 -15 13 -2 6 -7 -5 -11 -25 -6 -35 -8 -37 -29 -25
-12 6 -26 17 -30 22 -4 6 -7 1 -5 -10 2 -11 11 -28 21 -37 23 -20 18 -43 -9
-43 -23 0 -32 -48 -14 -70 14 -17 5 -36 -14 -29 -8 3 -17 0 -21 -6 -3 -6 -3
-9 2 -8 4 2 8 -1 8 -7 0 -5 -2 -9 -5 -8 -3 1 -12 4 -21 8 -13 5 -16 1 -14 -19
2 -14 6 -30 10 -35 10 -17 25 -13 25 7 0 10 3 13 8 6 4 -6 14 -14 22 -18 48
-22 66 -39 77 -68 l12 -33 -2 35 c-2 31 1 35 22 35 28 0 35 13 21 35 -8 13
-11 12 -24 -5 -8 -11 -18 -16 -23 -12 -4 5 7 22 25 38 20 18 27 29 17 29 -8 0
-15 7 -15 16 0 12 7 15 24 12 19 -4 24 -1 21 12 -4 21 11 47 22 36 4 -5 3 -10
-3 -13 -6 -2 -8 -17 -6 -34 3 -21 -1 -34 -13 -42 -14 -11 -15 -17 -4 -40 9
-21 9 -30 -1 -42 -7 -8 -16 -12 -21 -9 -5 3 -9 0 -9 -5 0 -6 5 -12 10 -12 6
-1 15 -2 20 -3 6 0 21 -14 34 -31 13 -16 28 -27 32 -23 4 5 0 16 -9 26 -10 10
-17 24 -17 30 0 7 -8 13 -17 13 -16 1 -16 2 0 6 14 4 17 11 13 29 -4 13 -4 24
0 24 12 0 35 -30 29 -39 -3 -5 -1 -12 5 -16 5 -3 10 -1 10 5 0 6 5 8 10 5 6
-3 10 -23 10 -44 0 -38 19 -91 33 -91 10 0 9 18 -3 25 -6 4 -6 12 -1 23 5 9
12 25 15 35 8 26 24 12 32 -29 5 -27 9 -32 20 -24 7 7 10 19 7 27 -5 13 -2 15
11 10 10 -4 30 0 47 10 24 14 33 15 48 6 15 -10 21 -10 25 0 3 9 8 8 16 -3 10
-12 11 -11 7 8 -3 13 1 25 10 31 13 7 13 11 2 29 -19 30 -26 27 -21 -8 3 -20
0 -30 -9 -31 -59 -7 -79 -6 -79 2 0 5 -9 9 -20 9 -12 0 -20 -7 -20 -17 -1 -17
-1 -17 -11 0 -5 9 -17 17 -25 17 -8 0 -12 -4 -9 -10 3 -5 2 -10 -4 -10 -5 0
-13 5 -16 10 -9 15 -25 2 -25 -21 0 -35 -17 -11 -24 33 -9 57 -8 63 11 61 11
-1 13 5 8 20 -3 12 -8 35 -11 51 -5 26 -4 28 10 17 8 -7 22 -11 31 -9 14 3 14
6 -3 24 -13 14 -19 31 -16 51 3 28 1 31 -21 28 -20 -2 -25 2 -25 21 0 13 5 24
10 24 6 0 10 -4 10 -10 0 -5 9 -10 20 -10 18 0 19 5 16 50 -5 55 8 76 19 32
13 -48 13 -86 -1 -107 -18 -25 -18 -39 0 -32 7 3 18 1 24 -5 8 -8 23 -5 51 9
26 13 42 16 44 9 3 -7 9 -7 20 3 10 7 17 10 18 5 6 -46 5 -73 -1 -69 -5 3 -11
-1 -14 -7 -5 -11 -7 -11 -12 0 -3 6 -10 9 -15 6 -13 -8 9 -34 28 -34 20 0 8
-16 -17 -23 -15 -4 -24 1 -30 16 -7 20 -9 20 -15 4 -8 -20 19 -67 38 -67 9 0
9 2 -1 9 -10 6 -7 12 11 24 18 12 27 13 36 4 8 -8 11 -8 11 1 0 7 7 12 15 12
8 0 15 -5 15 -12 0 -9 3 -9 11 -1 7 7 5 22 -7 49 -9 22 -16 45 -15 52 1 8 -3
20 -9 27 -7 8 -9 19 -5 26 5 7 14 1 26 -17 17 -26 17 -28 1 -41 -11 -8 -12
-12 -4 -13 6 0 12 -8 12 -17 1 -14 4 -13 14 6 13 23 14 23 25 5 12 -18 12 -18
7 0 -5 13 -2 17 9 13 8 -4 17 -2 20 3 4 6 2 10 -3 10 -4 0 -18 9 -30 20 -13
12 -22 16 -22 9 0 -7 -2 -10 -5 -7 -9 9 7 38 21 38 7 0 17 -8 23 -17 13 -24
21 -13 10 15 -9 24 -38 29 -58 10 -10 -11 -15 -9 -27 7 -15 20 -15 20 -20 -1
-3 -12 -15 -21 -30 -22 -28 -2 -28 0 -9 54 10 31 12 51 5 75 -13 44 -13 44 5
29 9 -7 13 -22 10 -34 -3 -12 -2 -15 1 -8 3 6 10 10 15 7 5 -4 19 4 31 15 l23
21 3 -20 c2 -12 7 -19 12 -16 5 3 11 1 15 -5 3 -5 1 -10 -6 -10 -7 0 -9 -3 -6
-6 4 -4 13 -1 22 6 20 17 19 1 -2 -22 -9 -11 -11 -18 -5 -18 7 0 12 -7 12 -16
0 -13 3 -14 14 -5 17 14 29 0 20 -23 -4 -10 -1 -16 8 -16 12 0 13 11 6 61 -4
33 -11 66 -15 72 -11 18 -14 47 -4 47 13 0 34 -28 28 -37 -3 -4 1 -14 9 -21
12 -11 14 -9 14 9 0 12 -12 32 -26 45 -25 24 -25 44 1 44 9 0 11 -7 7 -22 -5
-19 -3 -21 9 -11 12 10 19 8 34 -10 13 -15 20 -18 23 -8 3 8 9 5 17 -11 8 -15
8 -27 2 -36 -18 -23 3 -26 27 -3 14 13 29 20 34 17 18 -11 1 -41 -30 -55 -28
-13 -29 -14 -13 -30 13 -12 19 -13 22 -3 7 17 23 15 23 -3 0 -14 -12 -19 -32
-16 -13 2 -9 -34 6 -54 8 -11 19 -16 30 -12 24 9 20 35 -6 40 l-23 4 23 8 c15
5 22 15 22 32 0 20 3 23 13 15 7 -6 22 -9 33 -6 17 4 19 0 19 -35 0 -22 3 -42
5 -44 12 -12 43 -11 47 1 3 6 -2 12 -11 12 -23 0 -29 18 -12 36 9 8 16 21 16
27 0 8 -3 8 -9 -1 -8 -14 -16 -7 -36 28 -8 13 -7 13 10 0 17 -14 18 -13 12 3
-8 22 12 22 29 0 8 -11 13 -13 14 -5 0 26 18 10 24 -23 7 -38 26 -48 26 -14 0
11 -4 17 -10 14 -10 -6 -12 4 -14 63 -1 15 -7 31 -13 35 -7 4 -13 12 -13 17 0
17 20 11 46 -15 26 -26 56 -24 47 3 -4 12 -1 12 10 -3 8 -11 19 -17 23 -13 4
4 1 14 -6 23 -10 12 -10 15 1 15 17 0 29 -9 49 -34 14 -18 13 -19 -5 -12 -16
6 -18 5 -7 -5 16 -17 15 -29 -4 -29 -9 0 -12 5 -8 12 4 7 3 8 -4 4 -7 -4 -12
-15 -12 -26 0 -17 3 -17 45 -5 47 15 71 4 35 -15 -11 -6 -20 -18 -20 -27 0
-13 3 -14 12 -5 7 7 17 12 22 12 6 0 4 -6 -5 -13 -22 -17 -32 -53 -20 -74 9
-16 10 -15 11 7 0 14 12 37 29 52 21 20 27 34 24 53 -3 14 -11 25 -19 25 -7 0
-16 5 -20 12 -5 8 -2 9 9 5 10 -3 17 -2 17 3 0 6 -4 10 -10 10 -5 0 -10 5 -10
10 0 6 7 10 15 10 8 0 15 4 15 9 0 15 -18 23 -25 12 -3 -6 -12 -8 -20 -4 -26
9 -16 18 23 19 30 0 38 -4 39 -18 1 -10 -2 -18 -8 -18 -19 0 -7 -23 32 -61 22
-21 42 -39 44 -39 2 0 -3 16 -11 35 -8 19 -12 35 -10 35 15 0 35 -13 31 -20
-3 -5 -1 -11 5 -15 5 -3 10 -1 10 5 0 6 4 8 10 5 6 -4 5 -13 -3 -26 -10 -16
-9 -21 3 -29 16 -10 15 -11 -23 -28 -23 -10 -28 -10 -25 0 5 13 -42 71 -50 63
-3 -3 5 -16 18 -29 17 -19 21 -33 18 -58 -3 -20 0 -38 8 -46 24 -24 15 -36
-10 -13 -15 15 -22 29 -19 45 3 14 0 32 -6 43 -11 17 -11 17 -9 -2 4 -34 -12
-75 -28 -75 -8 0 -12 -5 -9 -11 4 -5 -1 -19 -10 -29 -24 -27 -4 -52 39 -48 25
2 31 7 31 27 0 13 -6 26 -14 29 -9 3 -11 -1 -6 -17 4 -12 2 -21 -4 -21 -6 0
-11 11 -11 25 0 14 2 25 4 25 2 0 11 3 20 6 10 4 16 1 16 -9 0 -18 28 -31 44
-19 12 10 60 -11 49 -21 -3 -4 -1 -7 5 -7 6 0 12 -9 14 -20 2 -15 7 -17 18
-10 12 8 13 11 1 19 -8 5 -11 16 -6 31 6 19 4 22 -9 17 -14 -6 -15 -3 -6 14 6
11 15 17 21 14 5 -4 9 1 9 9 0 22 -9 20 -39 -6 -14 -13 -20 -16 -13 -7 6 9 9
19 5 22 -3 4 1 7 10 7 10 0 17 5 17 11 0 18 33 5 36 -14 1 -11 6 -22 10 -25 4
-4 4 1 1 11 -5 13 0 21 19 29 13 6 23 17 20 23 -2 7 5 11 17 10 12 -2 21 -8
20 -14 -8 -34 -5 -61 6 -61 6 0 11 14 13 32 2 17 9 33 16 36 7 2 10 -2 6 -12
-3 -9 -1 -16 5 -16 6 0 11 7 11 16 0 11 6 13 19 9 14 -4 21 0 26 15 4 11 11
18 16 14 6 -3 16 -1 24 6 10 8 15 8 20 -1 4 -6 2 -14 -4 -18 -7 -5 -9 -16 -4
-27 6 -17 5 -17 -10 -5 -15 12 -17 11 -17 -3 0 -9 2 -16 4 -16 2 0 13 -3 23
-7 10 -3 15 -3 11 2 -4 4 -3 14 3 22 6 7 8 13 3 13 -14 0 19 20 34 20 6 0 12
-7 12 -15 0 -9 -6 -12 -15 -9 -10 4 -15 0 -15 -14 0 -12 -11 -24 -30 -32 -25
-10 -29 -16 -23 -34 4 -11 7 -36 7 -53 0 -26 2 -30 13 -22 8 7 13 8 13 1 0 -5
-7 -15 -15 -22 -13 -11 -12 -16 12 -36 31 -26 40 -25 24 4 -6 11 -7 23 -3 28
4 5 -1 2 -10 -5 -27 -20 -22 2 6 28 l23 22 -5 -27 c-3 -16 1 -29 9 -35 22 -14
26 -11 33 26 4 20 11 33 17 30 5 -4 9 -1 9 4 0 6 7 11 15 11 20 0 19 -16 -1
-24 -9 -4 -14 -9 -11 -13 4 -3 3 -11 -2 -17 -4 -6 -11 -22 -14 -36 -5 -21 -4
-22 6 -10 7 8 29 16 49 18 31 3 39 0 51 -24 14 -26 13 -29 -11 -48 -17 -13
-27 -16 -29 -9 -3 7 -12 10 -21 7 -15 -5 -15 -4 1 9 9 8 17 20 17 28 0 12 -2
12 -9 0 -5 -8 -16 -11 -26 -7 -14 5 -16 4 -7 -7 7 -8 9 -17 5 -20 -3 -4 0 -14
8 -23 12 -14 11 -16 -6 -12 -12 2 -29 -6 -42 -20 -11 -13 -24 -19 -27 -13 -3
5 0 11 6 14 7 2 10 8 6 12 -11 11 -48 -5 -48 -21 0 -9 5 -12 12 -8 8 5 9 2 5
-10 -4 -10 -7 -22 -7 -28 0 -6 -6 -8 -14 -5 -8 3 -17 -2 -21 -11 -5 -12 -8
-13 -14 -4 -6 10 -11 10 -21 -3 -18 -22 -25 -19 -50 18 -12 17 -19 24 -16 14
3 -10 1 -23 -4 -30 -65 -80 -63 -74 -46 -108 9 -19 13 -42 10 -58 -6 -25 -6
-25 9 -6 19 24 22 56 5 53 -6 -2 -14 5 -16 15 -3 15 0 18 16 13 17 -6 19 -3
15 13 -5 21 21 41 35 26 4 -4 1 -10 -5 -12 -19 -7 -16 -21 5 -25 9 -2 23 3 30
12 12 13 13 13 8 -4 -5 -14 -3 -17 11 -11 10 4 25 7 34 7 11 0 18 10 21 29 4
25 2 28 -14 23 -13 -4 -16 -1 -12 9 3 9 13 13 25 10 15 -4 20 1 25 26 4 17 13
31 20 31 11 0 13 -7 8 -27 l-7 -26 26 19 c26 19 29 37 13 63 -6 9 -5 12 5 9 7
-2 25 1 38 8 18 10 29 10 38 2 13 -10 14 -9 17 15 2 22 44 20 51 -2 9 -31 27
-26 23 6 -2 18 -14 35 -35 48 -18 11 -32 27 -32 35 0 12 3 11 13 -3 8 -10 17
-14 20 -9 8 14 -19 33 -36 27 -17 -7 -21 26 -5 36 9 6 19 78 18 127 -1 13 5
22 14 22 25 0 28 21 6 43 -18 19 -21 19 -21 4 0 -9 5 -17 10 -17 6 0 10 -6 10
-12 0 -7 -12 0 -27 15 -27 27 -28 28 -8 40 30 18 65 27 65 16 0 -5 -4 -9 -10
-9 -6 0 -5 -10 2 -25 8 -18 14 -22 24 -14 8 6 14 7 18 0 4 -6 13 -8 21 -4 10
3 15 -1 15 -13 0 -15 2 -16 9 -5 5 7 14 10 21 6 8 -5 11 -1 8 11 -4 20 26 54
49 54 7 0 13 7 13 16 0 13 8 15 34 12 19 -2 32 0 29 5 -6 9 15 37 29 37 16 0
4 -32 -22 -58 -15 -16 -37 -26 -60 -27 -50 -3 -52 -4 -44 -16 3 -6 16 -8 28
-4 64 19 66 18 61 -20 -2 -20 -7 -40 -10 -45 -9 -14 16 -23 28 -11 9 9 8 14
-3 21 -9 6 -10 10 -3 10 6 0 16 12 21 28 l10 27 10 -25 11 -25 1 25 c0 14 4
32 10 40 6 9 5 17 -2 21 -7 4 -3 11 10 18 19 10 21 8 20 -22 -1 -22 -18 -56
-59 -114 -33 -44 -59 -85 -59 -90 0 -5 -9 -16 -19 -25 -10 -9 -24 -24 -29 -34
-12 -22 -25 -14 -16 10 3 9 11 13 17 9 6 -3 7 -1 3 6 -12 20 -38 -9 -33 -36 6
-31 -11 -42 -55 -39 -29 2 -35 0 -31 -12 4 -8 -2 -21 -11 -27 -11 -8 -13 -15
-7 -20 6 -3 11 -1 11 5 0 6 5 8 10 5 6 -3 10 0 10 8 0 8 9 17 20 20 19 5 19 4
-3 -22 -24 -30 -80 -71 -97 -71 -5 0 -10 10 -10 23 0 18 -2 19 -10 7 -12 -19
-13 -43 -1 -35 5 3 12 1 15 -4 17 -28 -354 -271 -414 -271 -6 0 -8 22 -5 50 3
31 0 52 -7 56 -6 4 -8 3 -4 -4 3 -6 2 -13 -4 -17 -5 -3 -10 -1 -10 5 0 7 -7 5
-16 -4 -19 -20 -44 -21 -44 -1 0 9 6 12 15 9 19 -8 19 10 0 26 -12 10 -15 9
-15 -5 0 -14 -3 -15 -14 -6 -10 8 -16 9 -21 1 -3 -5 0 -10 8 -10 8 0 18 -12
21 -26 4 -16 12 -24 21 -21 10 4 13 -3 11 -29 -2 -19 1 -34 5 -34 5 0 9 18 9
39 0 37 13 61 23 44 3 -5 7 -26 8 -48 4 -39 3 -40 -36 -53 -22 -7 -49 -16 -60
-21 -49 -23 -149 -51 -200 -57 -50 -6 -55 -5 -55 12 0 15 2 16 9 5 6 -9 11
-10 15 -3 4 6 13 9 20 6 18 -7 32 16 16 26 -7 4 -9 13 -6 19 4 6 2 11 -4 11
-7 0 -14 -9 -17 -20 -6 -24 -10 -25 -29 -5 -9 8 -11 15 -5 15 6 0 11 7 11 15
0 19 -39 59 -48 50 -4 -4 1 -12 10 -19 11 -8 15 -20 12 -34 -6 -22 -32 -38
-31 -19 1 36 -4 43 -30 42 -18 0 -31 -7 -36 -19 -4 -11 -13 -16 -23 -12 -11 4
-18 -1 -21 -14 -3 -11 -8 -20 -12 -20 -13 0 -37 36 -33 49 3 9 -2 11 -17 6
-15 -5 -21 -2 -21 9 0 9 6 16 14 16 8 0 14 10 14 25 0 14 -5 25 -10 25 -5 0
-7 8 -4 18 6 20 -29 66 -44 57 -5 -3 -10 -11 -10 -16 0 -6 5 -7 11 -3 13 8 29
-13 29 -38 0 -12 -5 -15 -17 -11 -11 4 -14 3 -9 -6 5 -7 14 -10 22 -7 21 8 17
-13 -6 -32 -23 -20 -18 -74 7 -65 16 6 56 -32 59 -56 1 -9 3 -23 5 -31 3 -10
-5 -16 -23 -18 -21 -3 -28 1 -28 13 0 11 5 15 15 11 20 -7 19 11 -2 37 -12 14
-27 21 -41 19 -14 -2 -30 4 -38 15 -14 17 -14 17 -5 -4 6 -11 24 -27 41 -35
33 -14 39 -28 13 -28 -15 0 -16 -2 -3 -10 17 -10 14 -15 -17 -24 -17 -5 -23
-3 -23 7 0 9 6 17 13 20 8 3 3 11 -13 25 -18 14 -27 17 -32 9 -10 -15 -10 -27
0 -26 26 4 32 -2 22 -21 -18 -33 -105 -23 -95 11 7 21 3 22 -44 13 -17 -4 -31
-11 -31 -16 0 -6 7 -8 15 -4 8 3 15 0 15 -5 0 -10 -93 -7 -165 5 -11 2 -26 4
-32 5 -7 0 -13 6 -13 12 0 7 11 9 30 6 21 -5 30 -3 30 7 0 19 -37 49 -50 41
-6 -4 -21 1 -32 12 -15 13 -22 15 -25 6 -3 -7 -11 -13 -18 -13 -22 0 -26 -17
-8 -31 12 -10 15 -10 9 -1 -10 17 18 26 41 13 17 -10 17 -10 0 -11 -10 0 -15
-5 -12 -10 9 -15 -24 -25 -38 -11 -6 6 -21 11 -33 11 -21 0 -39 24 -29 40 3 4
-4 6 -15 3 -11 -3 -20 -12 -20 -19 0 -8 -2 -14 -3 -14 -9 0 -118 40 -130 47
-6 4 -19 9 -28 10 -30 5 -266 123 -278 140 -3 4 -26 19 -51 32 -25 13 -58 36
-75 50 -16 15 -47 40 -69 56 -84 61 -239 236 -328 370 -49 75 -177 330 -201
405 -8 25 -11 47 -6 48 13 5 11 22 -3 20 -6 -2 -14 6 -16 17 -4 17 -2 18 13 5
13 -11 21 -11 36 -2z m725 -38 c-12 -8 -26 -21 -33 -30 -10 -12 -10 -8 -1 20
6 19 13 41 15 49 3 11 7 10 22 -5 17 -18 17 -19 -3 -34z m244 17 c0 -5 -4 -5
-10 -2 -5 3 -10 14 -10 23 0 15 2 15 10 2 5 -8 10 -19 10 -23z m270 23 c0 -5
-5 -10 -11 -10 -5 0 -7 5 -4 10 3 6 8 10 11 10 2 0 4 -4 4 -10z m520 0 c0 -5
-4 -10 -10 -10 -5 0 -10 5 -10 10 0 6 5 10 10 10 6 0 10 -4 10 -10z m35 0 c3
-5 1 -10 -4 -10 -6 0 -11 5 -11 10 0 6 2 10 4 10 3 0 8 -4 11 -10z m243 -8 c3
-9 -2 -13 -14 -10 -9 1 -19 9 -22 16 -3 9 2 13 14 10 9 -1 19 -9 22 -16z
m-1208 -3 c13 -9 13 -10 -2 -6 -9 3 -22 -1 -29 -9 -14 -17 -36 -3 -25 15 9 14
37 14 56 0z m98 -15 c0 -17 -4 -22 -11 -15 -5 5 -7 17 -4 25 9 23 15 19 15
-10z m1178 -2 c-18 -16 -18 -16 -6 6 6 13 14 21 18 18 3 -4 -2 -14 -12 -24z
m584 8 c0 -11 -6 -20 -14 -20 -9 0 -12 7 -9 20 3 11 9 20 14 20 5 0 9 -9 9
-20z m170 16 c0 -3 -4 -8 -10 -11 -5 -3 -10 -1 -10 4 0 6 5 11 10 11 6 0 10
-2 10 -4z m-1690 -15 c0 -13 -29 -35 -37 -28 -7 8 15 37 28 37 5 0 9 -4 9 -9z
m820 -6 c0 -8 9 -15 20 -15 13 0 18 -5 14 -15 -4 -8 -10 -13 -14 -10 -5 3 -11
1 -15 -4 -3 -5 3 -15 12 -20 17 -11 17 -11 0 -22 -9 -5 -27 -20 -40 -32 -17
-17 -34 -22 -72 -22 -34 0 -55 -6 -67 -17 -20 -20 -38 -23 -38 -7 0 5 5 7 11
3 7 -4 10 -1 7 7 -7 19 10 49 27 49 8 0 15 5 15 11 0 6 9 9 19 6 11 -3 22 1
25 9 6 16 -10 28 -25 18 -7 -4 -10 -1 -7 7 6 19 39 24 49 7 8 -10 11 -10 20 5
5 9 18 17 29 17 13 0 17 5 13 20 -3 11 0 20 6 20 6 0 11 -7 11 -15z m259 -14
c-15 -5 -22 6 -14 19 6 9 10 9 16 -1 5 -8 4 -15 -2 -18z m527 20 c-9 -14 -66
-32 -66 -20 0 5 9 9 20 9 11 0 20 5 20 10 0 6 7 10 16 10 8 0 13 -4 10 -9z
m-2478 -12 c-10 -5 -18 -17 -18 -24 0 -8 -5 -15 -10 -15 -6 0 -23 -14 -38 -31
-24 -27 -31 -30 -49 -21 -18 10 -22 8 -33 -18 -14 -34 -16 -35 -36 -16 -17 17
-18 26 -3 26 6 0 24 9 39 20 16 11 31 16 34 11 7 -11 46 -2 46 11 0 6 -7 8
-15 4 -8 -3 -15 -1 -15 4 0 5 16 12 35 16 21 4 37 13 40 25 4 10 14 19 23 19
16 -1 15 -2 0 -11z m264 -1 c15 1 30 -4 34 -10 5 -8 1 -9 -10 -5 -14 6 -16 3
-11 -13 4 -11 2 -20 -4 -20 -6 0 -11 4 -11 9 0 5 -8 8 -17 7 -10 0 -17 5 -15
12 1 6 -5 12 -13 12 -8 0 -15 5 -15 11 0 7 7 8 18 3 9 -4 29 -7 44 -6z m670
-30 c-9 -20 -11 -20 -11 -4 -1 14 -4 16 -15 7 -11 -9 -15 -7 -19 10 -5 17 -2
20 14 16 10 -3 19 0 19 6 0 8 4 7 12 -1 8 -8 8 -17 0 -34z m1118 32 c0 -5 -4
-10 -10 -10 -5 0 -10 5 -10 10 0 6 5 10 10 10 6 0 10 -4 10 -10z m-1324 -27
c-10 -10 -19 5 -10 18 6 11 8 11 12 0 2 -7 1 -15 -2 -18z m819 1 c-23 -17 -32
-10 -15 11 7 8 17 12 23 8 6 -4 3 -11 -8 -19z m1215 22 c0 -3 -4 -8 -10 -11
-5 -3 -10 -1 -10 4 0 6 5 11 10 11 6 0 10 -2 10 -4z m-2900 -25 c0 -21 -29
-36 -43 -22 -5 5 0 15 14 25 29 20 29 20 29 -3z m40 9 c0 -5 -5 -10 -11 -10
-5 0 -7 5 -4 10 3 6 8 10 11 10 2 0 4 -4 4 -10z m1860 -6 c0 -8 -5 -12 -10 -9
-6 4 -8 11 -5 16 9 14 15 11 15 -7z m783 -8 c-10 -13 -21 -22 -25 -19 -14 8
-9 23 7 23 8 0 15 5 15 10 0 6 5 10 10 10 6 0 3 -11 -7 -24z m-2523 10 c0 -3
-4 -8 -10 -11 -5 -3 -10 -1 -10 4 0 6 5 11 10 11 6 0 10 -2 10 -4z m440 -17
c-6 -11 -17 -16 -25 -13 -11 5 -14 1 -9 -12 4 -14 3 -16 -4 -5 -15 21 -3 46
23 47 21 2 23 -1 15 -17z m240 0 c0 -5 -5 -7 -10 -4 -11 7 -40 -18 -40 -35 0
-8 -6 -8 -20 0 -24 13 -27 35 -4 26 8 -3 22 1 30 9 18 17 44 20 44 4z m1130 1
c0 -5 -2 -10 -4 -10 -3 0 -8 5 -11 10 -3 6 -1 10 4 10 6 0 11 -4 11 -10z m546
-38 c-12 -11 -18 7 -10 30 l8 23 4 -23 c2 -13 1 -26 -2 -30z m84 38 c0 -5 -4
-10 -10 -10 -5 0 -10 5 -10 10 0 6 5 10 10 10 6 0 10 -4 10 -10z m497 -12 c-3
-8 -6 -5 -6 6 -1 11 2 17 5 13 3 -3 4 -12 1 -19z m-2825 -43 c-5 -16 -13 -30
-20 -33 -18 -6 -15 45 3 52 9 3 12 12 9 23 -5 16 -4 16 5 2 6 -9 7 -28 3 -44z
m108 33 c0 -13 -23 -5 -28 10 -2 7 2 10 12 6 9 -3 16 -11 16 -16z m255 12 c-3
-5 -10 -10 -16 -10 -5 0 -9 5 -9 10 0 6 7 10 16 10 8 0 12 -4 9 -10z m95 -20
c0 -6 -7 -10 -15 -10 -8 0 -12 -6 -9 -14 7 -18 -9 -28 -30 -20 -21 8 -20 30 2
43 9 6 13 11 9 11 -5 0 -5 5 -2 10 7 12 45 -5 45 -20z m267 -5 c4 -28 -12 -34
-19 -7 -6 20 1 46 10 37 3 -3 8 -17 9 -30z m1273 26 c0 -5 -7 -14 -15 -21 -8
-7 -12 -16 -9 -21 3 -5 0 -9 -5 -9 -6 0 -11 9 -11 21 0 11 5 17 10 14 6 -3 10
1 10 9 0 9 5 16 10 16 6 0 10 -4 10 -9z m370 -1 c0 -5 -4 -10 -10 -10 -5 0
-10 5 -10 10 0 6 5 10 10 10 6 0 10 -4 10 -10z m204 -6 c8 -22 8 -24 -7 -24
-7 0 -13 9 -14 20 -2 24 12 27 21 4z m32 -21 c-11 -11 -19 6 -11 24 8 17 8 17
12 0 3 -10 2 -21 -1 -24z m-2913 2 c4 -8 -3 -12 -19 -12 -27 0 -26 -1 -18 21
6 17 30 11 37 -9z m1192 15 c8 -13 -5 -13 -25 0 -13 8 -13 10 2 10 9 0 20 -4
23 -10z m808 -6 c9 -4 17 -11 17 -16 0 -5 -8 -8 -17 -6 -10 2 -23 -3 -29 -10
-8 -12 -11 -8 -11 17 0 19 5 29 11 26 6 -3 19 -8 29 -11z m460 1 c-3 -9 -8
-14 -10 -11 -3 3 -2 9 2 15 9 16 15 13 8 -4z m377 5 c0 -5 -4 -10 -10 -10 -5
0 -10 5 -10 10 0 6 5 10 10 10 6 0 10 -4 10 -10z m270 -21 c-14 -25 -18 -24
-15 4 3 29 3 29 15 22 7 -4 7 -13 0 -26z m-2900 -14 c0 -19 -5 -35 -11 -35 -6
0 -9 10 -8 23 2 12 0 28 -4 35 -5 7 -3 12 7 12 12 0 16 -10 16 -35z m151 18
c0 -11 3 -13 6 -5 6 14 33 16 33 2 0 -5 -4 -10 -10 -10 -5 0 -9 -5 -7 -11 4
-23 -21 -20 -28 3 -4 13 -13 26 -19 30 -7 5 -4 8 7 8 9 0 17 -8 18 -17z m204
-17 c-19 -29 -35 -34 -35 -11 0 8 7 15 15 15 9 0 18 7 22 15 3 9 8 14 10 11 3
-2 -3 -16 -12 -30z m125 24 c0 -5 -5 -10 -11 -10 -5 0 -7 5 -4 10 3 6 8 10 11
10 2 0 4 -4 4 -10z m228 -2 c-5 -13 -38 -20 -38 -8 0 8 17 18 33 19 5 1 7 -4
5 -11z m436 -9 c-3 -5 -10 -7 -15 -3 -5 3 -7 10 -3 15 3 5 10 7 15 3 5 -3 7
-10 3 -15z m986 11 c0 -5 -5 -10 -11 -10 -5 0 -7 5 -4 10 3 6 8 10 11 10 2 0
4 -4 4 -10z m422 -20 c1 -9 -1 -17 -7 -18 -5 -1 -11 10 -13 25 -4 29 13 23 20
-7z m-2608 4 c11 -10 14 -24 10 -42 -10 -40 -14 -44 -30 -31 -11 9 -14 9 -14
0 0 -7 -4 -9 -10 -6 -15 10 -12 35 5 35 10 0 15 10 15 30 0 34 3 36 24 14z
m366 -30 c0 -19 -18 -18 -22 2 -3 13 -7 13 -27 -5 -26 -23 -41 -21 -22 3 7 8
8 16 4 18 -4 3 -2 3 5 2 6 -2 12 3 12 12 0 12 3 12 25 -2 14 -9 25 -23 25 -30z
m128 21 c-3 -3 -9 2 -12 12 -6 14 -5 15 5 6 7 -7 10 -15 7 -18z m500 6 c3 -8
-1 -12 -9 -9 -7 2 -15 10 -17 17 -3 8 1 12 9 9 7 -2 15 -10 17 -17z m1882 3
c0 -8 -5 -12 -10 -9 -6 4 -8 11 -5 16 9 14 15 11 15 -7z m-2754 -50 c4 -15 12
-20 30 -18 13 1 24 -2 24 -7 0 -5 -4 -9 -10 -9 -5 0 -19 -9 -31 -21 l-21 -21
-21 21 c-21 20 -21 21 -2 35 18 13 18 15 2 30 -24 24 -21 39 3 24 12 -7 23
-22 26 -34z m804 36 c0 -5 -4 -10 -10 -10 -5 0 -10 5 -10 10 0 6 5 10 10 10 6
0 10 -4 10 -10z m820 0 c0 -19 -5 -25 -25 -27 -11 -1 -14 1 -7 3 6 3 12 12 12
20 0 8 5 14 10 14 6 0 10 -4 10 -10z m-1017 -21 c-6 -6 -19 -9 -29 -6 -16 4
-15 5 4 6 12 0 22 6 22 13 0 6 3 8 7 5 4 -4 2 -12 -4 -18z m1237 -11 c0 -5 -4
-7 -9 -4 -5 3 -12 -4 -16 -17 l-8 -22 -4 23 c-3 13 -2 30 1 39 5 12 9 13 21 3
8 -7 15 -17 15 -22z m210 11 c0 -4 -8 -13 -17 -18 -12 -7 -14 -13 -7 -18 17
-13 24 -41 15 -65 -8 -21 -10 -19 -16 17 -4 22 -13 46 -19 54 -8 11 -8 15 2
18 6 3 12 11 12 19 0 8 6 11 15 8 8 -4 15 -10 15 -15z m370 -28 c0 -17 4 -22
16 -17 8 3 12 2 9 -4 -8 -12 -35 -13 -35 -1 0 5 -3 24 -6 42 -4 26 -3 30 5 19
6 -8 11 -26 11 -39z m150 39 c0 -5 -2 -10 -4 -10 -3 0 -8 5 -11 10 -3 6 -1 10
4 10 6 0 11 -4 11 -10z m60 0 c0 -5 -4 -10 -10 -10 -5 0 -10 5 -10 10 0 6 5
10 10 10 6 0 10 -4 10 -10z m-2110 -28 c0 -15 2 -15 10 -2 9 13 11 13 19 1 12
-19 2 -44 -15 -37 -7 3 -15 -3 -17 -12 -3 -9 -5 -3 -6 15 0 17 -6 33 -13 35
-6 2 -8 10 -4 16 10 16 26 6 26 -16z m119 2 c-13 -7 -26 -10 -28 -8 -8 7 33
33 43 27 5 -3 -2 -12 -15 -19z m421 11 c-9 -11 -9 -15 -1 -15 6 0 14 7 17 15
6 16 24 11 24 -6 0 -6 -4 -7 -10 -4 -10 6 -14 -7 -11 -32 1 -7 -3 -13 -9 -13
-5 0 -10 7 -10 16 0 8 -4 13 -9 9 -5 -3 -13 -1 -16 5 -10 16 2 40 21 40 13 0
14 -3 4 -15z m88 -3 c2 -7 -3 -12 -12 -12 -9 0 -16 7 -16 16 0 17 22 14 28 -4z
m252 6 c0 -4 -7 -8 -16 -8 -11 0 -14 -6 -9 -20 8 -25 -3 -26 -21 -2 -21 27
-16 39 16 39 17 0 30 -4 30 -9z m268 1 c-2 -6 -8 -10 -13 -10 -5 0 -11 4 -13
10 -2 6 4 11 13 11 9 0 15 -5 13 -11z m77 -39 c-14 -13 -17 -13 -25 0 -6 9 -6
16 0 18 6 2 10 11 10 20 1 15 3 14 15 -3 13 -17 13 -21 0 -35z m120 40 c3 -5
1 -10 -4 -10 -6 0 -11 5 -11 10 0 6 2 10 4 10 3 0 8 -4 11 -10z m965 0 c0 -16
-23 -60 -32 -60 -12 0 -10 27 4 50 13 21 28 27 28 10z m-2495 -12 c3 -2 -6
-11 -20 -18 -26 -14 -54 -2 -42 17 6 9 53 10 62 1z m555 -1 c-1 -14 -50 -52
-50 -39 0 5 -11 7 -25 4 -35 -6 -31 11 6 29 40 19 69 21 69 6z m805 -17 c-6
-9 -9 -9 -16 1 -10 17 0 34 13 21 6 -6 7 -16 3 -22z m775 20 c0 -5 -4 -10 -10
-10 -5 0 -10 5 -10 10 0 6 5 10 10 10 6 0 10 -4 10 -10z m261 -5 c-1 -15 -24
-12 -29 3 -3 9 2 13 12 10 10 -1 17 -7 17 -13z m-3041 -5 c0 -5 -4 -10 -10
-10 -5 0 -10 5 -10 10 0 6 5 10 10 10 6 0 10 -4 10 -10z m455 0 c3 -5 1 -10
-4 -10 -6 0 -11 5 -11 10 0 6 2 10 4 10 3 0 8 -4 11 -10z m864 -20 c9 -14 11
-21 4 -16 -7 4 -19 4 -25 -1 -7 -4 -24 -9 -38 -10 -24 -3 -24 -3 -5 12 11 9
25 13 32 11 7 -3 13 -1 13 3 0 16 -27 20 -50 8 -12 -7 -22 -16 -21 -22 2 -5
-7 -12 -18 -17 -12 -4 -21 -14 -21 -23 0 -8 -4 -15 -10 -15 -6 0 -6 9 0 24 5
13 6 27 3 30 -4 3 0 6 9 6 8 0 23 9 33 20 25 28 72 23 94 -10z m236 20 c3 -5
1 -10 -4 -10 -6 0 -11 5 -11 10 0 6 2 10 4 10 3 0 8 -4 11 -10z m1265 -5 c0
-8 3 -14 8 -13 4 0 15 -2 25 -7 15 -6 16 -10 5 -16 -10 -6 -10 -11 -1 -20 8
-8 9 -19 2 -37 -13 -35 -69 -103 -79 -97 -11 7 11 50 38 73 18 16 19 21 7 48
-7 16 -20 38 -29 47 -10 9 -14 21 -11 27 10 15 35 12 35 -5z m60 5 c0 -5 -4
-10 -10 -10 -5 0 -10 5 -10 10 0 6 5 10 10 10 6 0 10 -4 10 -10z m-2760 -10
c0 -5 -2 -10 -4 -10 -3 0 -8 5 -11 10 -3 6 -1 10 4 10 6 0 11 -4 11 -10z m910
0 c0 -5 -2 -10 -4 -10 -3 0 -8 5 -11 10 -3 6 -1 10 4 10 6 0 11 -4 11 -10z
m-796 -15 c-6 -16 -34 -21 -34 -7 0 13 11 22 26 22 8 0 11 -6 8 -15z m536 0
c0 -8 5 -15 10 -15 6 0 10 -4 10 -9 0 -5 -9 -7 -20 -4 -20 5 -29 43 -10 43 6
0 10 -7 10 -15z m135 5 c-3 -5 -11 -10 -16 -10 -6 0 -7 5 -4 10 3 6 11 10 16
10 6 0 7 -4 4 -10z m615 0 c0 -5 -4 -10 -10 -10 -5 0 -10 5 -10 10 0 6 5 10
10 10 6 0 10 -4 10 -10z m675 -9 c-3 -6 -11 -8 -17 -5 -6 4 -5 9 3 15 16 10
23 4 14 -10z m116 -8 c7 -18 6 -30 -1 -37 -16 -16 -12 -30 5 -16 12 10 15 10
15 -3 0 -18 -17 -26 -43 -19 -16 4 -16 6 -2 28 9 15 13 34 9 49 -8 33 4 32 17
-2z m-1576 7 c-3 -5 -11 -10 -16 -10 -6 0 -7 5 -4 10 3 6 11 10 16 10 6 0 7
-4 4 -10z m925 -11 c0 -5 -4 -9 -10 -9 -5 0 -10 7 -10 16 0 8 5 12 10 9 6 -3
10 -10 10 -16z m218 10 c-2 -6 -8 -10 -13 -10 -5 0 -11 4 -13 10 -2 6 4 11 13
11 9 0 15 -5 13 -11z m832 -36 c0 -11 -5 -10 -24 4 -13 10 -20 20 -15 21 5 2
6 9 2 15 -3 7 3 3 15 -7 12 -11 22 -25 22 -33z m226 20 c-10 -10 -19 5 -10 18
6 11 8 11 12 0 2 -7 1 -15 -2 -18z m144 12 c0 -8 5 -15 10 -15 15 0 12 -19 -7
-40 -18 -18 -18 -18 -20 7 -1 19 1 22 8 12 7 -11 9 -11 9 2 0 9 -10 24 -22 32
l-23 16 23 0 c13 1 22 -5 22 -14z m-3070 1 c0 -3 -4 -8 -10 -11 -5 -3 -10 -1
-10 4 0 6 5 11 10 11 6 0 10 -2 10 -4z m524 -33 c-4 -21 -14 -43 -23 -49 -13
-10 -13 -14 -2 -28 12 -14 12 -16 -3 -10 -13 5 -16 0 -16 -24 0 -17 -3 -37 -6
-46 -7 -19 -34 -21 -35 -3 0 6 -4 2 -9 -10 -9 -23 -68 -41 -89 -28 -6 3 -14
-1 -17 -9 -8 -20 -24 -21 -24 -1 0 8 -3 15 -7 14 -19 -3 -53 15 -53 27 0 8 3
14 8 14 4 0 17 3 30 6 17 5 21 3 16 -9 -3 -8 -1 -18 5 -22 7 -4 11 7 11 29 0
37 16 49 27 20 3 -9 0 -20 -8 -26 -11 -8 -11 -9 3 -5 9 3 19 1 21 -6 3 -7 8
-4 13 8 4 11 13 25 20 30 7 6 15 21 19 35 5 19 4 21 -4 10 -12 -18 -23 -8 -27
24 -2 23 -2 23 28 9 22 -11 33 -12 41 -4 6 6 8 11 4 11 -4 0 -3 9 4 21 7 13
17 19 29 16 19 -5 35 17 24 34 -3 5 2 9 11 9 13 0 15 -7 9 -37z m1090 21 c9
-22 8 -24 -9 -24 -8 0 -15 9 -15 20 0 24 15 27 24 4z m1396 12 c0 -3 -4 -8
-10 -11 -5 -3 -10 -1 -10 4 0 6 5 11 10 11 6 0 10 -2 10 -4z m-2957 -21 c4 -8
2 -17 -3 -20 -6 -4 -10 3 -10 14 0 25 6 27 13 6z m37 0 c0 -8 -4 -15 -10 -15
-5 0 -10 7 -10 15 0 8 5 15 10 15 6 0 10 -7 10 -15z m840 -17 c0 -23 -3 -29
-11 -21 -6 6 -8 20 -4 32 9 30 15 26 15 -11z m-705 12 c-3 -5 -11 -10 -16 -10
-6 0 -7 5 -4 10 3 6 11 10 16 10 6 0 7 -4 4 -10z m118 -17 c7 -34 -20 -84 -33
-62 -5 7 -6 18 -2 24 3 5 -2 4 -11 -4 -27 -22 -22 17 6 44 29 30 34 30 40 -2z
m303 -8 c0 -21 -4 -34 -10 -32 -17 5 -20 49 -4 58 7 5 13 9 13 9 0 0 0 -16 1
-35z m73 -20 c12 5 13 3 5 -5 -18 -18 -51 -3 -56 25 -7 37 3 39 20 5 11 -22
20 -29 31 -25z m11 40 c0 -8 -7 -15 -15 -15 -9 0 -12 6 -9 15 4 8 10 15 15 15
5 0 9 -7 9 -15z m1085 -11 c-21 -16 -37 -14 -43 5 -3 9 2 11 16 7 11 -4 23 -2
27 4 4 6 10 8 13 5 4 -4 -2 -13 -13 -21z m565 16 c0 -5 -5 -10 -11 -10 -5 0
-7 5 -4 10 3 6 8 10 11 10 2 0 4 -4 4 -10z m229 -7 c10 -17 10 -17 11 0 0 15
3 15 20 5 11 -7 20 -16 20 -21 0 -4 -4 -6 -10 -2 -15 9 -51 -34 -52 -64 -1
-23 -5 -27 -27 -25 -57 3 -57 4 -32 24 13 11 21 26 18 34 -3 8 1 17 9 20 8 3
14 15 14 26 0 25 15 26 29 3z m-2604 -3 c-3 -5 -10 -10 -16 -10 -5 0 -9 5 -9
10 0 6 7 10 16 10 8 0 12 -4 9 -10z m876 -13 c-13 -13 -26 -3 -16 12 3 6 11 8
17 5 6 -4 6 -10 -1 -17z m419 8 c0 -8 -7 -15 -16 -15 -14 0 -14 3 -4 15 7 8
14 15 16 15 2 0 4 -7 4 -15z m255 5 c3 -5 1 -10 -4 -10 -6 0 -11 5 -11 10 0 6
2 10 4 10 3 0 8 -4 11 -10z m455 0 c0 -5 -4 -10 -10 -10 -5 0 -10 5 -10 10 0
6 5 10 10 10 6 0 10 -4 10 -10z m560 6 c0 -11 -19 -15 -25 -6 -3 5 1 10 9 10
9 0 16 -2 16 -4z m-1535 -26 c17 -19 12 -25 -17 -22 -3 1 -12 -6 -19 -14 -10
-12 -10 -17 0 -23 8 -5 10 -18 5 -36 -5 -20 -4 -26 5 -21 6 4 11 1 11 -7 0
-16 -21 -27 -51 -27 -10 0 -19 -5 -19 -11 0 -6 -7 -9 -15 -5 -18 7 -20 -10 -2
-18 8 -3 5 -11 -12 -25 -12 -12 -28 -18 -34 -14 -7 4 -8 0 -4 -11 8 -21 -9
-56 -27 -56 -8 0 -19 -7 -26 -15 -7 -8 -17 -12 -24 -8 -6 4 -5 -1 2 -10 8 -9
12 -24 9 -34 -3 -14 -7 -10 -17 14 -6 18 -16 31 -20 28 -4 -3 -15 6 -24 20
-20 31 -21 41 -1 25 10 -8 15 -9 15 -2 0 7 7 9 17 5 11 -4 14 -3 9 5 -9 14 28
65 39 54 4 -4 4 3 1 15 -6 18 -3 22 14 20 21 -1 29 -17 8 -17 -9 0 -8 -3 2
-10 19 -12 31 7 23 37 -3 14 -1 23 7 23 6 0 8 4 5 10 -7 11 9 45 22 45 4 0 7
8 6 18 -3 22 3 22 29 -3 12 -11 25 -20 29 -20 14 0 -3 39 -20 43 -11 3 -9 5 7
6 12 1 22 7 22 16 0 8 5 15 11 15 6 0 9 7 5 15 -8 21 8 19 29 -5z m64 -1 c-10
-6 -7 -13 14 -29 23 -19 25 -23 13 -36 -15 -15 -32 -18 -80 -16 -22 2 -27 5
-19 13 6 6 9 17 7 23 -2 6 9 19 26 29 16 10 30 23 30 28 0 6 5 7 11 3 8 -4 7
-9 -2 -15z m1701 12 c0 -6 -4 -13 -10 -16 -5 -3 -10 1 -10 9 0 9 5 16 10 16 6
0 10 -4 10 -9z m-2390 -16 c0 -8 -4 -15 -10 -15 -5 0 -10 7 -10 15 0 8 5 15
10 15 6 0 10 -7 10 -15z m919 -11 c-6 -8 -8 -14 -3 -14 5 0 2 -4 -6 -9 -17
-12 -30 -5 -30 15 0 8 4 13 9 10 5 -3 12 1 15 10 3 8 11 12 16 9 8 -5 7 -11
-1 -21z m411 5 c0 -5 -4 -9 -10 -9 -5 0 -10 7 -10 16 0 8 5 12 10 9 6 -3 10
-10 10 -16z m450 11 c-19 -13 -30 -13 -30 0 0 6 10 10 23 10 18 0 19 -2 7 -10z
m225 0 c11 -17 -5 -32 -21 -19 -8 6 -14 15 -14 20 0 12 27 11 35 -1z m105 -5
c7 -8 8 -15 2 -15 -5 0 -15 7 -22 15 -7 8 -8 15 -2 15 5 0 15 -7 22 -15z m507
-5 c-3 -10 0 -21 7 -23 6 -2 8 -8 4 -12 -4 -4 -13 -1 -21 6 -11 10 -12 18 -3
31 14 23 20 23 13 -2z m-2932 0 c4 -6 11 -8 16 -5 5 4 9 2 9 -4 0 -5 -4 -13
-10 -16 -5 -3 -10 -1 -10 4 0 6 -7 11 -15 11 -8 0 -15 5 -15 10 0 13 17 13 25
0z m140 0 c3 -5 1 -10 -4 -10 -6 0 -11 5 -11 10 0 6 2 10 4 10 3 0 8 -4 11
-10z m306 -23 c-16 -16 -26 0 -10 19 9 11 15 12 17 4 2 -6 -1 -17 -7 -23z
m232 3 c6 -24 1 -25 -19 -5 -9 8 -12 19 -9 25 9 14 21 5 28 -20z m1689 15 c0
-5 -5 -11 -10 -13 -5 -1 -9 4 -9 13 0 9 4 14 9 13 5 -2 10 -8 10 -13z m431 9
c3 -3 3 -13 0 -21 -5 -12 -7 -12 -14 -1 -15 23 -4 40 14 22z m75 -5 c-2 -3 4
-14 12 -24 12 -15 12 -17 1 -14 -8 3 -18 15 -23 28 -5 15 -4 21 3 19 6 -2 9
-6 7 -9z m-2791 -18 c10 -16 9 -20 -5 -23 -12 -4 -17 2 -18 19 -2 28 7 30 23
4z m708 9 c3 -5 -1 -10 -10 -10 -9 0 -13 5 -10 10 3 6 8 10 10 10 2 0 7 -4 10
-10z m1348 -14 c9 -13 13 -27 10 -30 -7 -7 -53 33 -53 46 0 17 28 7 43 -16z
m492 14 c8 -12 -3 -50 -14 -50 -4 0 -8 14 -8 30 0 30 10 39 22 20z m-2588 -22
c-3 -8 -6 -5 -6 6 -1 11 2 17 5 13 3 -3 4 -12 1 -19z m1475 -31 c17 -15 27
-31 24 -34 -3 -4 -12 -1 -18 5 -19 19 -30 14 -18 -9 7 -11 9 -23 6 -26 -10
-10 -37 20 -32 34 3 8 1 22 -6 32 -6 11 -8 26 -3 37 6 15 8 16 12 4 3 -8 19
-28 35 -43z m-1022 28 c0 -8 5 -15 10 -15 6 0 10 -4 10 -10 0 -5 -6 -7 -14 -4
-8 3 -17 0 -21 -6 -5 -8 -11 -5 -21 7 -18 24 -17 31 4 36 30 8 32 7 32 -8z
m2466 -21 c-10 -14 -20 -23 -23 -21 -2 3 3 17 13 31 9 15 19 24 22 22 2 -3 -3
-17 -12 -32z m-2796 11 c-7 -8 -17 -15 -22 -15 -6 0 -5 7 2 15 7 8 17 15 22
15 6 0 5 -7 -2 -15z m430 5 c0 -5 -7 -10 -15 -10 -8 0 -15 5 -15 10 0 6 7 10
15 10 8 0 15 -4 15 -10z m973 -2 c24 -14 37 -28 37 -42 0 -5 -10 -1 -22 10
-20 18 -21 18 -15 1 5 -12 3 -17 -5 -15 -11 4 -32 58 -22 58 2 0 14 -6 27 -12z
m407 -9 c0 -5 -4 -9 -10 -9 -5 0 -10 7 -10 16 0 8 5 12 10 9 6 -3 10 -10 10
-16z m140 -10 c0 -10 -4 -19 -10 -19 -5 0 -10 12 -10 26 0 14 4 23 10 19 6 -3
10 -15 10 -26z m65 22 c3 -5 1 -12 -5 -16 -5 -3 -10 1 -10 9 0 18 6 21 15 7z
m95 0 c0 -5 -7 -12 -16 -15 -14 -5 -15 -4 -4 9 14 17 20 19 20 6z m80 -6 c0
-24 -4 -30 -20 -30 -8 0 -16 -8 -18 -18 -3 -16 -22 -25 -22 -10 0 11 44 73 53
73 4 0 7 -7 7 -15z m420 5 c8 -5 12 -12 9 -15 -8 -8 -39 5 -39 16 0 11 11 11
30 -1z m-866 -21 c-3 -5 -10 -7 -15 -3 -5 3 -7 10 -3 15 3 5 10 7 15 3 5 -3 7
-10 3 -15z m146 -15 c0 -7 -7 -14 -14 -17 -10 -4 -13 -1 -9 9 3 8 -1 14 -11
14 -9 0 -16 -5 -16 -12 0 -9 -3 -9 -12 1 -20 20 17 44 43 28 10 -6 19 -17 19
-23z m330 26 c0 -5 -4 -10 -10 -10 -5 0 -10 5 -10 10 0 6 5 10 10 10 6 0 10
-4 10 -10z m-2180 -20 c0 -11 -4 -20 -9 -20 -11 0 -22 26 -14 34 12 12 23 5
23 -14z m1037 -6 c-9 -9 -28 6 -21 18 4 6 10 6 17 -1 6 -6 8 -13 4 -17z m-977
6 c0 -5 -4 -10 -10 -10 -5 0 -10 5 -10 10 0 6 5 10 10 10 6 0 10 -4 10 -10z
m814 -5 c-4 -8 -10 -15 -15 -15 -4 0 -6 7 -3 15 4 8 10 15 15 15 4 0 6 -7 3
-15z m-904 -5 c0 -5 -4 -10 -10 -10 -5 0 -10 5 -10 10 0 6 5 10 10 10 6 0 10
-4 10 -10z m265 -17 c14 -14 18 -14 26 -2 7 11 9 9 9 -7 0 -28 -10 -36 -28
-21 -13 10 -14 9 -10 -3 3 -8 13 -14 22 -14 21 2 20 -6 -5 -36 -20 -24 -21
-24 -16 -3 3 12 -1 27 -9 33 -7 7 -12 25 -11 41 2 34 1 33 22 12z m145 -13 c0
-39 -15 -39 -16 0 -1 17 3 30 7 30 5 0 9 -13 9 -30z m1958 7 c5 -24 -15 -21
-21 4 -3 13 -1 19 6 16 7 -2 13 -11 15 -20z m242 13 c0 -5 -4 -10 -10 -10 -5
0 -10 5 -10 10 0 6 5 10 10 10 6 0 10 -4 10 -10z m-2687 -20 c6 -22 5 -23 -17
-14 -8 3 -12 12 -9 20 7 20 20 17 26 -6z m411 -18 c-5 -22 -4 -25 7 -14 18 16
29 15 29 -3 0 -8 -5 -15 -11 -15 -7 0 -9 -11 -6 -26 4 -22 2 -25 -17 -20 -11
3 -25 6 -30 6 -5 0 -3 6 3 14 9 11 10 20 1 35 -7 14 -7 21 0 21 5 0 10 9 10
21 0 11 5 17 10 14 6 -3 7 -18 4 -33z m1968 14 c4 -18 1 -23 -10 -19 -8 3 -18
0 -22 -7 -4 -7 -13 -9 -19 -6 -16 10 -14 26 4 26 8 0 15 7 15 15 0 25 27 17
32 -9z m-1445 -16 c0 -32 -11 -40 -21 -15 -6 17 2 45 13 45 4 0 8 -13 8 -30z
m1073 -11 c0 -6 -4 -7 -10 -4 -6 4 -10 -5 -10 -19 0 -14 -4 -26 -10 -26 -14 0
-12 38 3 54 13 15 27 12 27 -5z m190 7 c0 -19 -26 -40 -34 -27 -4 6 -14 8 -24
5 -14 -5 -15 -4 -2 5 8 6 23 11 33 11 10 0 15 5 12 10 -3 6 -1 10 4 10 6 0 11
-6 11 -14z m30 -1 c0 -8 -2 -15 -4 -15 -2 0 -6 7 -10 15 -3 8 -1 15 4 15 6 0
10 -7 10 -15z m-290 -18 c0 -16 -6 -23 -20 -24 -14 -1 -18 2 -13 10 4 7 8 15
9 20 3 15 4 17 14 17 6 0 10 -10 10 -23z m110 8 c0 -8 -4 -15 -10 -15 -5 0
-10 7 -10 15 0 8 5 15 10 15 6 0 10 -7 10 -15z m-1050 -2 c0 -5 -5 -15 -11
-23 -8 -11 -12 -12 -16 -2 -2 6 -9 10 -14 7 -5 -4 -6 1 -3 9 6 16 44 23 44 9z
m-687 -29 c-4 -10 -9 -12 -15 -6 -12 12 -1 35 12 27 5 -3 6 -13 3 -21z m-43 7
c0 -5 -12 -8 -26 -8 -18 0 -22 2 -13 8 18 11 39 11 39 0z m654 -45 c-7 -28
-24 -36 -24 -11 0 8 5 15 11 15 6 0 8 9 4 23 -6 16 -4 19 4 11 7 -7 9 -22 5
-38z m1455 34 c-1 -3 3 -15 9 -27 7 -13 8 -24 3 -27 -5 -4 -12 0 -15 6 -4 10
-7 9 -15 -2 -23 -35 -37 -48 -58 -55 -19 -5 -23 -2 -23 14 0 15 -5 19 -17 14
-11 -3 -6 5 11 21 28 25 46 33 46 20 0 -4 -8 -13 -17 -20 -16 -12 -16 -15 -3
-23 11 -8 18 -5 26 11 7 12 9 28 6 36 -5 15 25 45 41 39 5 -1 7 -5 6 -7z
m-1882 -22 c-3 -8 -6 -5 -6 6 -1 11 2 17 5 13 3 -3 4 -12 1 -19z m-212 2 c3
-5 1 -10 -4 -10 -6 0 -11 5 -11 10 0 6 2 10 4 10 3 0 8 -4 11 -10z m1595 6 c0
-1 -5 -17 -11 -34 -11 -31 -33 -37 -24 -7 3 8 7 22 10 30 4 13 25 22 25 11z
m-1479 -16 c5 0 9 -5 9 -11 0 -7 -10 -9 -25 -5 -14 4 -25 2 -25 -4 0 -5 -4
-10 -10 -10 -14 0 -12 27 3 33 6 3 18 4 25 1 8 -2 18 -4 23 -4z m1584 0 c3 -5
-1 -10 -9 -10 -9 0 -16 5 -16 10 0 6 4 10 9 10 6 0 13 -4 16 -10z m-1785 -4
c0 -3 -4 -8 -10 -11 -5 -3 -10 -1 -10 4 0 6 5 11 10 11 6 0 10 -2 10 -4z m565
-16 c3 -5 2 -17 -3 -26 -8 -14 -10 -12 -14 10 -5 26 5 35 17 16z m-426 -19
c10 -7 8 -12 -10 -25 -18 -12 -19 -16 -7 -16 9 0 19 6 22 13 4 9 8 8 17 -4 11
-15 14 -14 31 3 10 10 16 23 13 28 -3 5 1 7 9 4 25 -10 25 -31 0 -44 -13 -8
-24 -17 -24 -21 0 -4 -12 -10 -27 -14 -15 -3 -32 -14 -39 -23 -12 -16 -14 -16
-30 0 -10 10 -14 21 -10 25 4 4 11 1 16 -6 7 -12 11 -11 26 3 16 17 16 18 -2
15 -10 -1 -32 1 -48 6 l-28 8 33 28 c38 32 38 32 58 20z m-176 -15 c5 -14 -10
-36 -25 -36 -4 0 -8 5 -8 11 0 5 5 7 12 3 8 -5 9 0 6 14 -7 24 7 31 15 8z
m2194 -8 c-3 -8 -6 -5 -6 6 -1 11 2 17 5 13 3 -3 4 -12 1 -19z m49 -39 c1 -46
-14 -82 -43 -98 -15 -7 -18 -5 -19 15 -1 13 2 24 7 24 13 0 11 34 -3 49 -8 8
-8 11 -2 8 12 -7 36 15 33 29 -3 18 1 26 13 22 7 -3 13 -24 14 -49z m-166 25
c0 -8 5 -12 11 -8 6 3 3 -5 -6 -20 -24 -36 -35 -33 -35 9 0 24 5 35 15 35 8 0
15 -7 15 -16z m-1550 -8 c0 -11 -19 -15 -25 -6 -3 5 1 10 9 10 9 0 16 -2 16
-4z m105 -63 c-3 -13 -10 -23 -15 -23 -5 0 -7 -7 -4 -15 8 -19 -6 -19 -31 1
-14 11 -16 18 -7 21 6 3 12 15 12 29 0 18 4 22 18 17 14 -6 15 -4 4 9 -10 13
-10 17 0 20 17 6 31 -30 23 -59z m-138 41 c-3 -3 -12 -4 -19 -1 -8 3 -5 6 6 6
11 1 17 -2 13 -5z m-297 -50 c0 -8 -4 -12 -10 -9 -5 3 -10 10 -10 16 0 5 5 9
10 9 6 0 10 -7 10 -16z m1920 -25 c0 -6 -4 -7 -10 -4 -5 3 -10 11 -10 16 0 6
5 7 10 4 6 -3 10 -11 10 -16z m-1690 -9 c0 -5 -4 -10 -10 -10 -5 0 -10 5 -10
10 0 6 5 10 10 10 6 0 10 -4 10 -10z m1602 -255 c12 -16 9 -25 -7 -25 -8 0
-15 4 -15 9 0 6 -9 8 -19 6 -11 -2 -27 2 -37 9 -15 12 -12 13 27 12 24 0 47
-5 51 -11z m-597 -235 c3 -5 1 -10 -4 -10 -6 0 -11 5 -11 10 0 6 2 10 4 10 3
0 8 -4 11 -10z m-38 -16 c-3 -3 -12 -4 -19 -1 -8 3 -5 6 6 6 11 1 17 -2 13 -5z
m100 -50 c-2 -3 -21 -8 -42 -11 -30 -5 -37 -3 -33 8 3 8 15 13 30 11 15 -2 30
2 34 9 6 11 8 11 12 0 2 -7 2 -14 -1 -17z m-135 -4 c-2 -7 5 -9 18 -5 11 3 20
2 20 -3 0 -5 -11 -12 -25 -14 -14 -3 -25 -2 -25 3 0 4 -3 15 -7 25 -4 12 -2
15 8 12 8 -3 13 -11 11 -18z"/>
<path d="M1670 3430 c0 -5 7 -7 15 -4 8 4 15 8 15 10 0 2 -7 4 -15 4 -8 0 -15
-4 -15 -10z"/>
<path d="M1440 3419 c0 -5 5 -7 10 -4 6 3 10 8 10 11 0 2 -4 4 -10 4 -5 0 -10
-5 -10 -11z"/>
<path d="M1500 3420 c0 -12 17 -12 45 0 17 7 15 9 -12 9 -18 1 -33 -3 -33 -9z"/>
<path d="M1615 3420 c-3 -5 -1 -10 4 -10 6 0 11 5 11 10 0 6 -2 10 -4 10 -3 0
-8 -4 -11 -10z"/>
<path d="M1778 3423 c12 -2 32 -2 45 0 12 2 2 4 -23 4 -25 0 -35 -2 -22 -4z"/>
<path d="M2035 3420 c-4 -6 6 -10 22 -10 22 0 25 2 13 10 -19 12 -27 12 -35 0z"/>
<path d="M1900 3410 c-13 -8 -12 -10 3 -10 9 0 17 5 17 10 0 12 -1 12 -20 0z"/>
<path d="M1700 3400 c8 -5 26 -10 40 -10 21 0 22 -2 10 -11 -12 -9 -12 -10 3
-5 10 3 21 6 24 6 2 0 -2 7 -11 15 -8 8 -30 15 -48 15 -25 0 -29 -3 -18 -10z"/>
<path d="M2280 3389 c-25 -13 -29 -18 -15 -18 19 0 63 25 54 32 -2 2 -20 -5
-39 -14z"/>
<path d="M1190 3390 c0 -5 4 -10 9 -10 6 0 13 5 16 10 3 6 -1 10 -9 10 -9 0
-16 -4 -16 -10z"/>
<path d="M1245 3390 c-3 -5 3 -10 14 -10 12 0 21 5 21 10 0 6 -6 10 -14 10 -8
0 -18 -4 -21 -10z"/>
<path d="M1450 3390 c-20 -13 -10 -19 22 -13 15 3 25 9 22 14 -7 12 -25 11
-44 -1z"/>
<path d="M2130 3390 c0 -5 7 -10 15 -10 8 0 15 5 15 10 0 6 -7 10 -15 10 -8 0
-15 -4 -15 -10z"/>
<path d="M2338 3393 c6 -2 18 -2 25 0 6 3 1 5 -13 5 -14 0 -19 -2 -12 -5z"/>
<path d="M2460 3390 c-37 -8 -38 -10 -4 -14 12 -1 30 3 40 11 19 14 17 14 -36
3z"/>
<path d="M1615 3380 c-3 -5 3 -10 15 -10 12 0 18 5 15 10 -3 6 -10 10 -15 10
-5 0 -12 -4 -15 -10z"/>
<path d="M2018 3363 c7 -3 16 -2 19 1 4 3 -2 6 -13 5 -11 0 -14 -3 -6 -6z"/>
<path d="M2311 3359 c13 -8 97 -13 88 -5 -2 2 -26 6 -53 9 -30 3 -43 1 -35 -4z"/>
<path d="M2568 3343 c6 -2 18 -2 25 0 6 3 1 5 -13 5 -14 0 -19 -2 -12 -5z"/>
<path d="M2086 3037 c-16 -12 -18 -32 -17 -228 l2 -216 -161 1 -160 1 0 47 0
48 84 0 c97 0 116 5 116 31 0 22 6 21 -118 19 l-93 -1 3 118 3 118 118 3 c116
3 118 3 115 25 -3 21 -7 22 -137 25 -100 2 -136 -1 -142 -10 -4 -7 -5 -105 -2
-218 l5 -205 -100 1 -101 1 -58 54 c-32 30 -59 56 -61 60 -1 3 21 28 50 56
106 101 198 205 198 224 0 38 -37 19 -96 -48 -32 -38 -89 -97 -126 -132 l-68
-64 -1 114 c-1 63 -4 125 -8 139 -7 27 -36 39 -43 18 -6 -22 7 -596 14 -603 4
-4 14 -5 23 -2 12 5 15 28 15 132 0 69 4 125 8 125 10 0 72 -63 72 -74 0 -4
-3 -5 -7 -3 -5 3 -21 -1 -38 -8 l-30 -13 30 -3 c17 -2 43 -3 58 -4 20 -1 48
-21 106 -79 55 -54 84 -77 95 -73 29 11 17 44 -29 81 -25 21 -49 45 -54 54 -8
15 -1 17 66 16 41 -1 79 -6 83 -10 5 -5 10 -38 12 -74 l3 -65 145 0 c138 0
145 1 145 20 0 19 -8 20 -127 23 l-128 3 0 53 0 52 73 -4 c84 -6 134 -6 200
-1 l47 4 0 -73 c0 -57 3 -74 16 -79 25 -9 33 16 27 84 l-6 63 31 0 c17 0 37 3
46 6 11 4 29 -16 67 -75 28 -45 54 -81 58 -81 4 0 12 5 19 12 9 9 4 26 -23 74
-40 71 -41 74 -19 74 9 0 12 -5 8 -12 -5 -9 -4 -10 4 -3 7 6 30 9 52 7 l40 -4
0 -62 c0 -35 5 -67 12 -74 19 -19 272 -17 288 3 23 28 0 35 -124 35 l-123 0
-7 111 c-3 62 -5 113 -3 115 2 2 46 6 99 10 98 7 123 19 92 45 -10 8 -39 10
-103 5 l-88 -7 -5 95 c-8 155 -16 146 117 146 96 0 114 2 119 17 4 9 3 20 -1
24 -10 10 -258 14 -273 4 -9 -6 -12 -62 -10 -214 3 -232 3 -234 -9 -227 -4 3
-34 6 -66 7 l-57 2 -44 60 -43 60 48 22 c103 48 140 200 65 270 -13 12 -48 27
-81 34 -72 14 -85 14 -107 -2z m142 -69 c39 -19 49 -57 28 -112 -19 -49 -57
-79 -113 -89 l-33 -6 0 116 0 116 46 -7 c25 -3 58 -12 72 -18z m-48 -368 c0
-5 -13 -10 -29 -10 -30 0 -41 18 -41 70 1 24 1 24 35 -12 19 -21 35 -42 35
-48z"/>
<path d="M2760 3013 c0 -15 -2 -152 -5 -304 -5 -244 -4 -278 10 -289 10 -9 19
-10 26 -3 6 6 8 126 7 314 -3 280 -4 304 -20 307 -14 3 -18 -3 -18 -25z"/>
<path d="M720 3003 c0 -16 -2 -149 -4 -298 -2 -148 -1 -275 1 -282 3 -7 14
-13 24 -13 17 0 19 8 19 78 0 42 2 170 5 282 6 229 3 260 -26 260 -14 0 -19
-7 -19 -27z"/>
<path d="M864 3022 c-10 -6 -24 -270 -28 -517 -1 -84 0 -90 19 -90 18 0 21 10
30 83 6 46 13 80 18 76 4 -4 7 -2 7 3 0 6 -5 13 -11 15 -8 3 -9 48 -4 156 l8
151 54 -77 c31 -42 59 -81 64 -86 13 -14 45 19 97 104 l47 75 7 -160 c11 -274
18 -346 35 -352 31 -12 35 12 24 148 -5 74 -13 201 -16 283 -6 140 -14 186
-34 186 -13 0 -37 -32 -64 -85 -14 -27 -39 -69 -55 -92 l-28 -43 -24 32 c-44
60 -100 147 -100 156 0 16 -35 41 -46 34z"/>
<path d="M970 2580 c20 -13 47 -13 55 0 4 6 -9 10 -32 10 -28 0 -34 -3 -23
-10z"/>
<path d="M1045 2580 c3 -5 17 -10 30 -10 13 0 27 5 30 10 4 6 -8 10 -30 10
-22 0 -34 -4 -30 -10z"/>
<path d="M1248 2573 c7 -3 16 -2 19 1 4 3 -2 6 -13 5 -11 0 -14 -3 -6 -6z"/>
<path d="M2450 2571 c0 -8 128 -21 213 -21 35 0 47 4 45 13 -5 14 -258 22
-258 8z"/>
<path d="M2843 2570 c16 -5 38 -5 50 0 17 7 10 9 -28 9 -43 -1 -46 -2 -22 -9z"/>
<path d="M2943 2573 c9 -2 25 -2 35 0 9 3 1 5 -18 5 -19 0 -27 -2 -17 -5z"/>
<path d="M3265 2287 c-116 -46 -131 -133 -38 -229 20 -20 57 -52 84 -69 77
-53 100 -128 54 -174 -19 -20 -34 -25 -75 -25 -57 0 -80 17 -104 75 -9 20 -22
35 -32 35 -14 0 -16 -7 -11 -36 12 -73 55 -111 135 -121 101 -12 172 62 151
157 -12 55 -33 80 -111 138 -66 50 -110 116 -101 152 7 25 63 60 97 60 26 0
60 -27 82 -65 13 -23 34 -12 34 19 0 42 -69 97 -118 95 -9 0 -30 -6 -47 -12z"/>
<path d="M522 2262 c-9 -7 -12 -66 -10 -263 3 -246 4 -254 23 -254 19 0 20 7
20 108 0 59 2 107 5 107 12 0 79 -77 130 -147 49 -70 71 -86 86 -62 7 12 -46
94 -119 182 -27 32 -46 61 -43 64 3 4 6 3 6 -1 0 -3 17 2 38 13 38 19 67 48
90 88 32 58 -5 139 -73 159 -46 14 -134 17 -153 6z m130 -54 c50 -15 64 -39
49 -87 -13 -43 -49 -71 -100 -78 l-38 -5 -6 53 c-4 30 -7 71 -7 92 0 35 2 37
31 37 18 0 49 -5 71 -12z"/>
<path d="M1477 2264 c-4 -4 -7 -27 -7 -51 0 -28 -4 -43 -12 -43 -10 0 -10 -2
0 -9 9 -5 12 -24 10 -57 l-3 -49 -46 65 c-127 178 -169 184 -169 26 -1 -77
-14 -307 -23 -371 -2 -22 31 -34 43 -14 5 7 11 69 15 138 4 69 8 144 10 166 2
22 4 60 4 84 l1 43 89 -113 89 -112 7 -96 c8 -129 8 -126 30 -126 19 0 20 6
18 105 -1 58 -6 175 -10 260 -7 128 -11 155 -23 158 -9 1 -19 0 -23 -4z"/>
<path d="M1845 2260 c-4 -6 -6 -56 -6 -112 l1 -101 -58 79 c-55 75 -113 134
-132 134 -21 0 -28 -44 -33 -205 -4 -93 -10 -201 -13 -239 -7 -63 -6 -68 12
-64 24 4 32 43 39 203 3 72 8 154 11 183 l6 53 21 -28 c20 -26 66 -82 106
-128 44 -50 51 -72 57 -178 5 -81 11 -107 22 -112 31 -12 34 12 23 164 -6 83
-11 185 -11 225 0 40 -3 88 -6 105 -6 30 -27 41 -39 21z"/>
<path d="M1968 2258 c-6 -14 -5 -32 7 -306 8 -192 15 -225 46 -206 8 5 10 38
5 120 l-7 114 110 0 111 0 0 -102 c0 -105 8 -135 31 -126 19 7 20 490 2 509
-25 25 -33 -3 -33 -122 l0 -119 -110 0 -110 0 -1 78 c-1 111 -11 166 -30 170
-9 2 -19 -3 -21 -10z"/>
<path d="M2521 2253 c-5 -10 -27 -70 -49 -133 -22 -63 -58 -168 -81 -232 -23
-65 -41 -122 -41 -128 0 -5 8 -10 19 -10 19 0 41 48 72 153 l13 47 71 0 71 0
33 -100 c26 -79 36 -100 51 -100 10 0 21 4 24 9 3 5 -9 49 -28 98 -19 48 -44
131 -55 183 -49 214 -72 264 -100 213z m56 -249 c-6 -6 -86 -8 -92 -2 -3 2 8
39 23 81 l27 78 23 -77 c13 -41 21 -78 19 -80z"/>
<path d="M3027 2257 c-3 -8 -1 -65 4 -128 13 -166 -2 -257 -50 -303 -24 -23
-39 -28 -80 -29 -96 -2 -113 40 -111 276 2 201 3 187 -15 187 -28 0 -39 -44
-42 -175 -6 -259 39 -343 178 -333 103 7 149 64 168 208 11 81 6 246 -8 283
-11 29 -35 36 -44 14z"/>
<path d="M183 2250 c-22 -9 -23 -10 -22 -257 1 -175 4 -250 13 -255 19 -13
145 -9 180 6 49 20 88 77 94 136 8 89 -9 131 -69 173 l-22 16 22 27 c41 52 20
123 -45 150 -37 16 -117 18 -151 4z m161 -60 c16 -16 17 -23 7 -47 -13 -32
-78 -73 -115 -73 -25 0 -26 2 -26 68 0 38 3 72 8 76 13 14 106 -4 126 -24z
m32 -183 c34 -29 45 -108 21 -153 -27 -52 -57 -71 -125 -79 l-63 -7 3 123 c3
122 3 123 28 130 55 15 108 10 136 -14z"/>
<path d="M1112 2243 c-6 -11 -5 -50 0 -98 12 -97 4 -231 -15 -277 -22 -52 -61
-78 -117 -78 -41 0 -52 4 -73 30 -33 38 -41 100 -36 283 4 128 2 142 -13 145
-30 6 -38 -40 -38 -211 0 -150 2 -166 24 -214 32 -67 67 -87 147 -81 66 5 123
41 144 92 33 81 44 313 19 404 -8 26 -30 29 -42 5z"/>
<path d="M1540 2166 c0 -9 5 -16 10 -16 6 0 10 4 10 9 0 6 -4 13 -10 16 -5 3
-10 -1 -10 -9z"/>
<path d="M1768 2173 c6 -2 9 -10 5 -16 -4 -7 0 -8 11 -4 10 4 20 7 22 7 2 0 4
5 4 10 0 6 -12 10 -27 9 -16 0 -22 -3 -15 -6z"/>
<path d="M1900 2171 c0 -6 10 -8 21 -6 33 6 36 15 6 15 -15 0 -27 -4 -27 -9z"/>
<path d="M2067 2159 c4 -13 8 -18 11 -10 2 7 -1 18 -6 23 -8 8 -9 4 -5 -13z"/>
<path d="M2113 2173 c9 -2 23 -2 30 0 6 3 -1 5 -18 5 -16 0 -22 -2 -12 -5z"/>
<path d="M2611 2164 c0 -11 3 -14 6 -6 3 7 2 16 -1 19 -3 4 -6 -2 -5 -13z"/>
<path d="M2656 2153 c26 -24 47 -23 38 1 -3 8 -18 16 -34 18 l-29 4 25 -23z"/>
<path d="M1415 2160 c3 -5 11 -10 16 -10 6 0 7 5 4 10 -3 6 -11 10 -16 10 -6
0 -7 -4 -4 -10z"/>
<path d="M2310 2157 c0 -7 12 -13 28 -14 15 0 19 1 10 4 -10 2 -18 9 -18 14 0
5 -4 9 -10 9 -5 0 -10 -6 -10 -13z"/>
<path d="M2372 2159 c2 -7 10 -15 17 -17 8 -3 12 1 9 9 -2 7 -10 15 -17 17 -8
3 -12 -1 -9 -9z"/>
<path d="M2457 2163 c-4 -3 -7 -11 -7 -17 0 -6 5 -5 12 2 6 6 9 14 7 17 -3 3
-9 2 -12 -2z"/>
<path d="M2896 2154 c-9 -23 -8 -26 11 -22 19 4 27 38 8 38 -7 0 -16 -7 -19
-16z"/>
<path d="M3100 2160 c0 -5 7 -10 15 -10 8 0 15 5 15 10 0 6 -7 10 -15 10 -8 0
-15 -4 -15 -10z"/>
<path d="M1470 1699 c0 -5 5 -7 10 -4 6 3 10 8 10 11 0 2 -4 4 -10 4 -5 0 -10
-5 -10 -11z"/>
<path d="M1620 1700 c0 -5 5 -10 11 -10 5 0 7 5 4 10 -3 6 -8 10 -11 10 -2 0
-4 -4 -4 -10z"/>
<path d="M1420 1690 c0 -5 4 -10 9 -10 6 0 13 5 16 10 3 6 -1 10 -9 10 -9 0
-16 -4 -16 -10z"/>
<path d="M1524 1691 c3 -5 15 -7 26 -4 28 7 25 13 -6 13 -14 0 -23 -4 -20 -9z"/>
<path d="M1705 1690 c-3 -5 -2 -10 4 -10 5 0 13 5 16 10 3 6 2 10 -4 10 -5 0
-13 -4 -16 -10z"/>
<path d="M1210 1670 c13 -24 35 -27 26 -4 -3 9 -6 18 -6 20 0 2 -7 4 -15 4
-13 0 -14 -4 -5 -20z"/>
<path d="M1325 1680 c-3 -5 -1 -10 4 -10 6 0 11 5 11 10 0 6 -2 10 -4 10 -3 0
-8 -4 -11 -10z"/>
<path d="M1672 1675 c-11 -12 -10 -15 3 -15 8 0 15 7 15 15 0 18 -2 18 -18 0z"/>
<path d="M1395 1670 c-3 -6 1 -13 10 -16 19 -8 30 0 20 15 -8 14 -22 14 -30 1z"/>
<path d="M1567 1669 c7 -7 15 -10 18 -7 3 3 -2 9 -12 12 -14 6 -15 5 -6 -5z"/>
<path d="M1635 1670 c3 -5 8 -10 11 -10 2 0 4 5 4 10 0 6 -5 10 -11 10 -5 0
-7 -4 -4 -10z"/>
<path d="M1731 1664 c0 -11 3 -14 6 -6 3 7 2 16 -1 19 -3 4 -6 -2 -5 -13z"/>
<path d="M970 1659 c0 -5 5 -7 10 -4 6 3 10 8 10 11 0 2 -4 4 -10 4 -5 0 -10
-5 -10 -11z"/>
<path d="M1120 1660 c0 -5 18 -10 40 -10 22 0 40 5 40 10 0 6 -18 10 -40 10
-22 0 -40 -4 -40 -10z"/>
<path d="M1928 1663 c7 -3 16 -2 19 1 4 3 -2 6 -13 5 -11 0 -14 -3 -6 -6z"/>
<path d="M391 1344 c0 -11 3 -14 6 -6 3 7 2 16 -1 19 -3 4 -6 -2 -5 -13z"/>
<path d="M2760 1330 c0 -5 5 -10 11 -10 5 0 7 5 4 10 -3 6 -8 10 -11 10 -2 0
-4 -4 -4 -10z"/>
<path d="M1733 993 c5 -26 3 -33 -13 -38 -11 -4 -20 -10 -20 -15 0 -5 -3 -16
-7 -26 -6 -16 -2 -15 24 4 38 27 51 69 27 91 -15 15 -16 14 -11 -16z"/>
<path d="M2049 958 c4 -12 14 -24 21 -26 9 -3 11 1 7 12 -4 10 -7 22 -7 27 0
5 -7 9 -15 9 -11 0 -12 -6 -6 -22z"/>
<path d="M1518 948 c-7 -19 2 -38 17 -38 8 0 20 -10 26 -22 8 -14 14 -18 17
-10 2 6 10 12 18 12 8 0 11 6 8 15 -4 8 -10 13 -14 10 -4 -3 -23 2 -41 10 -19
8 -28 14 -21 15 6 0 12 5 12 10 0 14 -17 12 -22 -2z"/>
<path d="M1575 940 c-3 -5 1 -10 10 -10 9 0 13 5 10 10 -3 6 -8 10 -10 10 -2
0 -7 -4 -10 -10z"/>
<path d="M2140 911 c0 -11 -8 -25 -17 -31 -17 -10 -17 -11 1 -8 21 3 41 44 26
53 -6 4 -10 -3 -10 -14z"/>
<path d="M365 910 c-3 -5 -1 -10 4 -10 6 0 11 5 11 10 0 6 -2 10 -4 10 -3 0
-8 -4 -11 -10z"/>
<path d="M1740 916 c0 -2 7 -9 15 -16 12 -10 15 -10 15 4 0 9 -7 16 -15 16 -8
0 -15 -2 -15 -4z"/>
<path d="M2085 910 c3 -5 8 -10 11 -10 2 0 4 5 4 10 0 6 -5 10 -11 10 -5 0 -7
-4 -4 -10z"/>
<path d="M1990 900 c0 -5 5 -10 11 -10 5 0 7 5 4 10 -3 6 -8 10 -11 10 -2 0
-4 -4 -4 -10z"/>
<path d="M480 885 c0 -5 5 -17 10 -25 5 -8 10 -10 10 -5 0 6 -5 17 -10 25 -5
8 -10 11 -10 5z"/>
<path d="M2154 865 c-15 -22 -15 -28 -3 -35 21 -14 3 -23 -20 -11 -13 7 -18
18 -15 29 5 16 5 16 -6 -1 -6 -9 -8 -22 -5 -27 9 -15 -8 -11 -30 7 -16 13 -17
15 -2 10 22 -8 22 -2 -3 23 -12 12 -22 15 -26 9 -3 -6 -15 -8 -26 -6 -14 4
-18 2 -14 -9 3 -8 1 -14 -5 -14 -6 0 -9 -7 -5 -15 3 -8 1 -15 -4 -15 -5 0 -7
-8 -4 -17 4 -14 1 -13 -14 5 -25 27 -32 28 -32 2 0 -11 -7 -20 -15 -20 -9 0
-15 -10 -16 -22 0 -13 -3 -17 -6 -10 -2 6 -9 12 -15 12 -6 0 -7 -8 -3 -17 4
-10 10 -24 13 -32 4 -11 1 -13 -12 -8 -14 6 -16 3 -11 -14 4 -12 3 -19 -1 -17
-5 3 -17 -3 -26 -13 -16 -17 -16 -18 0 -22 13 -3 12 -6 -8 -14 -17 -8 -29 -7
-38 0 -10 8 -16 7 -23 -4 -7 -11 -11 -12 -18 -1 -4 8 -11 13 -15 13 -33 -5
-58 2 -63 16 -4 9 -2 18 5 21 6 2 8 10 5 18 -3 8 1 14 11 14 9 0 16 -8 16 -17
1 -17 1 -17 11 0 6 9 16 14 22 11 8 -5 8 -3 0 7 -7 7 -13 21 -13 31 0 10 -4
18 -10 18 -5 0 -10 7 -10 15 0 8 -5 15 -10 15 -6 0 -10 -6 -9 -12 1 -7 1 -21
0 -32 -1 -15 -4 -16 -15 -7 -8 7 -27 10 -43 7 -15 -2 -31 -5 -35 -5 -9 -1 3
-41 13 -41 5 0 9 -6 9 -14 0 -8 7 -21 15 -29 12 -13 12 -17 1 -27 -12 -9 -17
-4 -27 24 -7 19 -16 33 -20 30 -5 -2 -6 -11 -2 -19 3 -9 0 -22 -7 -30 -10 -12
-10 -18 0 -30 7 -8 19 -15 26 -15 8 0 14 -4 14 -10 0 -5 5 -10 10 -10 6 0 10
9 10 20 0 23 32 43 54 34 23 -9 44 -58 39 -88 -3 -14 -9 -26 -13 -26 -4 0 -12
-12 -19 -26 -7 -17 -17 -24 -26 -20 -19 7 -20 -8 -2 -22 10 -9 17 -4 31 18 19
33 43 39 53 14 3 -9 8 -12 12 -5 4 6 12 6 20 2 11 -7 10 -15 -8 -40 -19 -26
-26 -29 -41 -21 -16 8 -18 8 -14 -5 3 -8 11 -12 17 -8 6 4 8 -2 4 -16 -3 -14
0 -24 8 -27 8 -3 11 -13 7 -22 -5 -16 -5 -16 11 0 9 9 17 21 17 27 0 6 9 11
21 11 16 0 19 4 14 20 -6 20 1 24 35 21 12 -1 11 1 -2 12 -24 19 -23 30 2 22
10 -3 27 -2 37 3 15 9 18 6 19 -20 1 -16 7 -35 14 -41 10 -10 11 -7 5 12 -7
22 -5 23 19 19 l27 -5 -31 30 c-17 17 -29 36 -26 42 2 7 0 17 -5 22 -6 6 -2
17 8 29 22 23 26 105 6 97 -7 -3 -13 0 -13 6 0 16 46 13 62 -4 32 -35 38 -45
38 -62 1 -17 1 -17 11 0 16 27 30 21 19 -8 -8 -21 -7 -25 8 -25 10 0 23 -5 30
-12 9 -9 12 -9 12 0 0 7 -4 12 -10 12 -5 0 -10 5 -10 11 0 21 24 2 31 -24 4
-15 4 -25 -1 -22 -4 3 -6 -4 -3 -15 3 -13 0 -20 -8 -20 -11 0 -11 -2 1 -10 23
-15 30 -12 30 10 0 11 6 20 13 20 8 0 7 4 -3 11 -12 8 -12 12 -2 16 10 4 6 14
-15 36 -22 23 -24 29 -9 23 11 -4 22 -2 27 5 5 8 11 5 18 -10 7 -13 8 -21 2
-21 -6 0 -8 -7 -4 -16 6 -15 8 -15 20 2 13 17 13 17 13 -1 0 -18 0 -18 13 0 8
10 19 15 25 11 15 -9 15 7 1 21 -9 9 -9 20 0 43 6 18 8 36 5 41 -7 13 -32 -14
-27 -28 3 -7 -2 -13 -11 -13 -13 0 -15 6 -10 26 5 20 2 26 -15 31 -11 3 -21
12 -21 21 0 12 3 13 12 4 37 -37 50 19 14 61 -18 20 -23 22 -34 11 -7 -8 -8
-14 -2 -14 17 0 11 -39 -11 -69 -18 -25 -19 -31 -7 -50 12 -20 10 -24 -12 -41
-19 -15 -26 -16 -28 -5 -2 7 -14 16 -28 19 -25 7 -67 63 -58 78 3 4 13 8 22 8
11 0 13 -3 5 -8 -8 -5 -8 -12 2 -25 12 -17 14 -17 44 0 30 18 44 40 18 30 -10
-4 -13 5 -13 29 1 22 6 34 15 34 10 0 11 3 3 13 -7 8 -7 18 -2 27 8 13 10 12
10 -2 0 -25 17 -22 23 3 4 15 11 20 23 15 13 -5 15 -1 11 21 -3 15 -1 36 5 46
16 30 1 31 -18 2z m-112 -60 c-2 -10 1 -14 7 -10 6 3 11 2 11 -3 0 -8 -22 -22
-34 -22 -2 0 -3 14 -3 30 0 18 5 29 11 27 6 -2 10 -12 8 -22z m-39 -39 c11 -1
22 -7 25 -15 3 -9 -1 -11 -16 -7 -15 5 -22 2 -27 -14 -8 -26 -25 -27 -18 -1 4
16 1 19 -16 14 -24 -6 -27 2 -9 21 7 7 19 11 26 8 8 -2 23 -5 35 -6z m62 -36
c3 -5 -1 -10 -9 -10 -9 0 -16 5 -16 10 0 6 4 10 9 10 6 0 13 -4 16 -10z m125
-26 c0 -8 -4 -12 -10 -9 -5 3 -10 13 -10 21 0 8 5 12 10 9 6 -3 10 -13 10 -21z
m-524 -5 c0 -14 -4 -15 -18 -8 -10 5 -18 14 -18 19 0 5 8 8 18 7 10 0 18 -9
18 -18z m249 -18 c-12 -24 -12 -31 -3 -32 7 0 2 -5 -11 -10 -16 -6 -28 -6 -35
1 -8 8 -4 12 11 16 13 4 26 19 32 37 6 16 14 28 17 25 3 -4 -2 -20 -11 -37z
m-40 -81 c-8 -24 2 -26 26 -4 11 10 19 12 24 5 3 -6 -1 -11 -10 -11 -9 0 -14
-4 -11 -9 3 -5 -1 -14 -9 -21 -10 -9 -15 -9 -15 -1 0 6 -5 11 -11 11 -5 0 -8
-4 -4 -9 3 -5 1 -12 -5 -16 -5 -3 -10 -1 -10 4 0 6 -4 11 -10 11 -16 0 -12
-36 5 -50 11 -9 13 -16 5 -24 -5 -5 -10 -18 -10 -29 0 -10 -5 -15 -11 -12 -6
4 -7 19 -4 36 5 23 3 29 -10 29 -14 0 -15 -3 -6 -14 21 -25 -4 -25 -28 0 -13
13 -19 24 -13 24 6 0 8 9 5 20 -3 11 0 20 6 20 5 0 8 -7 5 -15 -4 -10 0 -15
16 -15 11 0 19 4 15 9 -3 5 -1 12 5 16 6 4 8 11 4 16 -3 5 0 8 7 7 6 -2 14 3
17 11 3 8 0 11 -7 7 -6 -4 -11 -3 -11 3 0 5 10 12 23 14 12 2 23 5 25 6 2 0 0
-8 -3 -19z m-64 -14 c-7 -8 -21 -12 -34 -8 -20 6 -20 7 8 13 17 4 32 7 34 8 2
0 -2 -5 -8 -13z m383 -11 c3 -8 1 -15 -4 -15 -6 0 -10 7 -10 15 0 8 2 15 4 15
2 0 6 -7 10 -15z m-314 -55 c0 -5 -4 -10 -10 -10 -5 0 -10 5 -10 10 0 6 5 10
10 10 6 0 10 -4 10 -10z m20 -20 c0 -5 -5 -10 -11 -10 -5 0 -7 5 -4 10 3 6 8
10 11 10 2 0 4 -4 4 -10z"/>
<path d="M400 871 c0 -5 5 -13 10 -16 6 -3 10 -2 10 4 0 5 -4 13 -10 16 -5 3
-10 2 -10 -4z"/>
<path d="M1770 861 c0 -11 -8 -22 -17 -24 -15 -4 -15 -6 5 -12 12 -4 22 -11
22 -16 0 -5 -11 -4 -24 1 -24 9 -24 8 -14 -21 5 -16 14 -29 19 -29 4 0 6 -7 2
-16 -5 -14 -3 -14 15 -3 15 10 18 16 9 21 -9 6 -9 10 -1 16 16 10 28 52 15 52
-6 0 -11 11 -11 25 0 14 -4 25 -10 25 -5 0 -10 -9 -10 -19z"/>
<path d="M1880 859 c0 -5 5 -7 10 -4 6 3 10 8 10 11 0 2 -4 4 -10 4 -5 0 -10
-5 -10 -11z"/>
<path d="M3100 847 c0 -16 3 -17 15 -7 8 7 15 16 15 20 0 3 -7 7 -15 7 -8 0
-15 -9 -15 -20z"/>
<path d="M3151 844 c0 -11 3 -14 6 -6 3 7 2 16 -1 19 -3 4 -6 -2 -5 -13z"/>
<path d="M510 830 c0 -5 5 -10 10 -10 6 0 10 5 10 10 0 6 -4 10 -10 10 -5 0
-10 -4 -10 -10z"/>
<path d="M1906 814 c-9 -24 -7 -28 9 -14 17 14 20 30 6 30 -5 0 -12 -7 -15
-16z"/>
<path d="M2601 813 c-13 -15 -4 -43 15 -43 17 0 19 20 2 20 -7 1 -1 8 15 16
15 8 27 16 27 17 0 8 -50 0 -59 -10z"/>
<path d="M1677 813 c-9 -9 -9 -41 1 -46 4 -3 8 8 9 24 2 30 1 33 -10 22z"/>
<path d="M3114 796 c1 -23 2 -23 19 -9 19 18 23 28 7 18 -5 -3 -10 -1 -10 4 0
6 -4 11 -9 11 -5 0 -8 -11 -7 -24z"/>
<path d="M455 799 c-4 -6 -5 -12 -2 -15 2 -3 7 2 10 11 7 17 1 20 -8 4z"/>
<path d="M1705 800 c3 -5 8 -10 11 -10 2 0 4 5 4 10 0 6 -5 10 -11 10 -5 0 -7
-4 -4 -10z"/>
<path d="M1876 794 c-4 -9 -4 -19 -1 -22 2 -3 7 3 11 12 4 9 4 19 1 22 -2 3
-7 -3 -11 -12z"/>
<path d="M2937 804 c7 -3 9 -13 6 -22 -5 -13 -3 -14 7 -5 14 13 5 33 -13 32
-9 0 -9 -2 0 -5z"/>
<path d="M505 790 c3 -5 8 -10 11 -10 2 0 4 5 4 10 0 6 -5 10 -11 10 -5 0 -7
-4 -4 -10z"/>
<path d="M1445 789 c-11 -17 -2 -18 19 -3 17 12 17 14 4 14 -9 0 -20 -5 -23
-11z"/>
<path d="M2500 781 c0 -12 6 -21 15 -21 8 0 15 3 15 6 0 3 -7 12 -15 20 -13
14 -15 13 -15 -5z"/>
<path d="M2643 786 c5 -12 0 -19 -16 -25 -13 -5 -25 -5 -28 1 -4 7 -14 6 -28
-1 -16 -9 -21 -9 -21 0 0 8 -4 8 -14 -1 -8 -6 -13 -17 -10 -24 2 -6 -2 -20
-10 -31 -14 -18 -15 -18 -16 -2 0 18 -20 25 -20 6 0 -6 -10 -19 -22 -29 -13
-10 -19 -22 -15 -26 4 -5 12 -2 17 6 5 8 12 11 16 7 10 -10 -13 -32 -34 -32
-10 0 -18 -9 -20 -22 -2 -16 2 -23 12 -23 9 0 16 -4 16 -10 0 -13 -37 -13 -45
0 -4 6 -11 8 -16 5 -5 -4 -9 -1 -9 4 0 6 -4 11 -10 11 -5 0 -10 -9 -10 -19 0
-11 5 -23 10 -26 13 -8 13 -25 0 -25 -5 0 -12 11 -16 24 -5 22 -9 24 -30 14
-13 -6 -24 -18 -23 -27 0 -10 2 -12 6 -3 7 17 23 15 23 -3 0 -8 -9 -19 -21
-25 -11 -7 -18 -14 -15 -17 3 -3 17 2 30 11 14 9 28 16 31 16 9 0 -17 -44 -34
-57 -9 -6 -12 -15 -7 -20 5 -4 11 -3 13 4 2 7 11 9 19 6 8 -3 15 1 16 8 0 8 2
19 2 24 1 6 5 16 10 23 6 11 12 10 27 -4 10 -9 19 -12 19 -7 0 6 -7 16 -15 23
-8 7 -15 18 -15 24 0 6 5 4 10 -4 5 -8 10 -10 10 -5 0 6 7 1 15 -9 15 -20 15
-20 15 0 0 11 6 26 12 32 10 10 10 17 0 32 -16 26 -15 27 8 33 13 3 21 -1 25
-14 4 -10 9 -19 13 -19 16 1 44 29 38 38 -8 14 4 43 18 41 36 -4 55 2 50 16
-4 8 -1 21 5 29 6 7 8 15 5 18 -3 3 7 8 21 12 26 7 35 39 13 52 -8 5 -9 2 -5
-10z m-71 -71 c-4 -25 -42 -37 -42 -14 0 5 4 8 9 4 5 -3 12 4 16 15 9 29 23
25 17 -5z"/>
<path d="M2207 776 c-4 -10 -1 -13 8 -9 8 3 12 9 9 14 -7 12 -11 11 -17 -5z"/>
<path d="M3050 775 c7 -8 10 -21 7 -28 -6 -16 29 -61 38 -47 3 5 1 10 -5 10
-6 0 -10 6 -9 13 4 25 -14 67 -28 67 -13 0 -13 -3 -3 -15z"/>
<path d="M3091 773 c0 -12 4 -25 9 -28 6 -4 8 -10 5 -15 -3 -5 -1 -11 5 -15 5
-3 10 3 10 14 0 12 -4 21 -9 21 -5 0 -12 10 -14 23 -4 22 -4 22 -6 0z"/>
<path d="M3166 753 c-6 -14 -5 -15 5 -6 7 7 10 15 7 18 -3 3 -9 -2 -12 -12z"/>
<path d="M475 750 c-3 -5 -2 -10 4 -10 5 0 13 5 16 10 3 6 2 10 -4 10 -5 0
-13 -4 -16 -10z"/>
<path d="M3135 750 c-3 -5 -1 -10 4 -10 6 0 11 5 11 10 0 6 -2 10 -4 10 -3 0
-8 -4 -11 -10z"/>
<path d="M520 736 c0 -9 7 -13 20 -11 11 2 20 0 20 -6 0 -5 8 -9 18 -9 14 0
12 4 -8 20 -30 23 -50 26 -50 6z"/>
<path d="M2970 738 c0 -9 5 -20 10 -23 13 -8 13 5 0 25 -8 13 -10 13 -10 -2z"/>
<path d="M3025 740 c-4 -6 -9 -8 -13 -6 -4 2 -8 -7 -8 -20 -1 -15 4 -24 12
-24 8 0 14 3 15 8 0 4 2 17 5 30 4 23 -1 29 -11 12z"/>
<path d="M1800 730 c0 -5 5 -10 11 -10 5 0 7 5 4 10 -3 6 -8 10 -11 10 -2 0
-4 -4 -4 -10z"/>
<path d="M490 715 c0 -8 4 -15 10 -15 5 0 7 7 4 15 -4 8 -8 15 -10 15 -2 0 -4
-7 -4 -15z"/>
<path d="M696 716 c3 -9 11 -16 16 -16 13 0 5 23 -10 28 -7 2 -10 -2 -6 -12z"/>
<path d="M603 694 c3 -17 2 -36 -4 -43 -6 -8 -6 -8 3 -1 20 17 27 12 49 -35
26 -55 35 -53 16 3 -10 30 -11 43 -3 46 6 3 5 5 -3 5 -7 1 -25 13 -38 29 l-25
27 5 -31z"/>
<path d="M1830 694 c-14 -35 -13 -36 10 -22 11 7 20 21 20 30 0 27 -19 22 -30
-8z"/>
<path d="M1380 682 c0 -30 25 -57 61 -66 13 -3 19 -3 13 0 -7 3 -10 14 -7 25
4 13 1 19 -8 17 -9 -2 -13 4 -11 15 2 9 -2 17 -8 17 -5 0 -10 -7 -10 -15 0 -8
-5 -15 -11 -15 -7 0 -9 10 -5 25 4 14 2 25 -4 25 -5 0 -10 -12 -10 -28z"/>
<path d="M2329 689 c-9 -17 -13 -19 -20 -8 -15 24 -44 -3 -45 -43 -1 -30 2
-35 17 -31 12 3 19 0 20 -8 0 -8 4 -5 9 6 5 11 9 14 9 8 1 -7 5 -13 10 -13 18
0 -1 38 -22 46 -19 6 -18 8 11 11 26 4 32 9 32 29 0 30 -6 30 -21 3z"/>
<path d="M2654 685 c6 -17 -3 -47 -13 -41 -4 3 -8 -4 -8 -15 -2 -25 20 -34 44
-20 17 10 17 10 1 11 -19 0 -25 34 -8 45 11 7 2 35 -12 35 -6 0 -8 -7 -4 -15z"/>
<path d="M2952 684 c-10 -11 -10 -18 4 -39 16 -24 34 -33 34 -17 0 4 -5 13
-12 20 -8 8 -8 15 1 25 16 20 -9 30 -27 11z"/>
<path d="M2378 673 c7 -3 16 -2 19 1 4 3 -2 6 -13 5 -11 0 -14 -3 -6 -6z"/>
<path d="M1787 663 c-4 -3 -7 -11 -7 -17 0 -6 5 -5 12 2 6 6 9 14 7 17 -3 3
-9 2 -12 -2z"/>
<path d="M2410 660 c0 -5 5 -10 10 -10 6 0 10 5 10 10 0 6 -4 10 -10 10 -5 0
-10 -4 -10 -10z"/>
<path d="M1323 652 c-17 -11 -2 -28 23 -28 15 0 20 5 16 18 -5 19 -19 23 -39
10z"/>
<path d="M1725 650 c3 -5 8 -10 11 -10 2 0 4 5 4 10 0 6 -5 10 -11 10 -5 0 -7
-4 -4 -10z"/>
<path d="M3054 644 c3 -9 6 -18 6 -20 0 -3 5 -2 10 1 16 10 12 35 -6 35 -11 0
-14 -5 -10 -16z"/>
<path d="M1013 638 c2 -7 9 -13 16 -13 6 0 16 -7 21 -15 5 -8 10 -11 10 -6 0
5 11 -1 25 -14 l25 -23 -13 26 c-6 15 -19 27 -28 27 -9 0 -22 7 -29 15 -15 18
-33 20 -27 3z"/>
<path d="M1470 630 c0 -19 3 -21 12 -12 9 9 9 15 0 24 -9 9 -12 7 -12 -12z"/>
<path d="M2340 638 c0 -13 19 -19 25 -8 4 6 10 8 15 5 5 -3 11 -1 15 4 3 6 -7
9 -25 8 -16 -1 -30 -5 -30 -9z"/>
<path d="M955 630 c-3 -5 -1 -10 4 -10 6 0 11 5 11 10 0 6 -2 10 -4 10 -3 0
-8 -4 -11 -10z"/>
<path d="M2548 613 c-7 -16 -18 -28 -25 -28 -19 0 -25 -12 -8 -18 8 -4 15 -2
15 3 0 14 28 12 33 -2 3 -7 4 6 4 30 -1 23 -2 42 -4 42 -1 0 -8 -12 -15 -27z"/>
<path d="M2600 601 c0 -17 -4 -33 -10 -36 -5 -3 -10 -13 -10 -22 0 -12 5 -11
20 7 21 24 28 80 10 80 -5 0 -10 -13 -10 -29z"/>
<path d="M820 610 c0 -5 7 -10 16 -10 8 0 12 5 9 10 -3 6 -10 10 -16 10 -5 0
-9 -4 -9 -10z"/>
<path d="M2117 613 c-4 -3 -7 -11 -7 -17 0 -6 5 -5 12 2 6 6 9 14 7 17 -3 3
-9 2 -12 -2z"/>
<path d="M1970 600 c0 -5 5 -10 10 -10 6 0 10 5 10 10 0 6 -4 10 -10 10 -5 0
-10 -4 -10 -10z"/>
<path d="M2702 598 c5 -15 28 -23 28 -10 0 5 -7 13 -16 16 -10 4 -14 1 -12 -6z"/>
<path d="M936 585 c-6 -18 2 -45 15 -45 4 0 6 7 3 15 -4 8 -1 22 6 30 10 12
10 15 -3 15 -8 0 -17 -7 -21 -15z"/>
<path d="M2471 584 c0 -11 3 -14 6 -6 3 7 2 16 -1 19 -3 4 -6 -2 -5 -13z"/>
<path d="M1670 579 c0 -5 5 -7 10 -4 6 3 10 8 10 11 0 2 -4 4 -10 4 -5 0 -10
-5 -10 -11z"/>
<path d="M2651 571 c-11 -7 -11 -9 0 -14 11 -3 12 -8 2 -23 -6 -11 -15 -18
-20 -17 -14 2 -34 -25 -23 -32 6 -3 10 0 10 7 1 8 7 5 16 -7 12 -16 16 -17 23
-6 5 7 7 23 4 35 l-4 21 10 -21 c5 -12 14 -25 20 -29 16 -9 13 17 -4 42 -10
14 -12 24 -5 28 6 4 8 11 5 16 -8 11 -16 11 -34 0z"/>
<path d="M1180 551 c0 -6 5 -13 10 -16 6 -3 10 1 10 9 0 9 -4 16 -10 16 -5 0
-10 -4 -10 -9z"/>
<path d="M1461 551 c-10 -6 -10 -10 -1 -16 6 -4 9 -14 6 -22 -3 -8 -1 -11 4
-8 6 3 10 13 10 21 0 8 5 14 10 14 6 0 10 5 10 10 0 12 -20 13 -39 1z"/>
<path d="M1693 529 c-6 -16 -19 -29 -28 -29 -11 0 -15 5 -12 15 4 8 1 17 -6
21 -7 4 -9 3 -4 -1 4 -5 -1 -17 -10 -28 -10 -11 -12 -17 -5 -13 7 4 23 1 36
-7 21 -14 24 -14 40 5 10 11 15 26 12 34 -3 8 -2 12 3 9 5 -3 12 -1 15 4 3 5
-2 11 -12 13 -14 4 -22 -3 -29 -23z"/>
<path d="M2480 551 c0 -11 29 -35 35 -29 10 9 -7 38 -21 38 -8 0 -14 -4 -14
-9z"/>
<path d="M1145 540 c4 -6 11 -8 16 -5 14 9 11 15 -7 15 -8 0 -12 -5 -9 -10z"/>
<path d="M1558 540 c-1 -5 -13 -11 -25 -13 -34 -5 -38 -15 -10 -22 17 -5 24
-12 20 -22 -4 -10 0 -14 13 -12 32 4 56 -11 43 -27 -8 -10 -6 -21 11 -44 12
-17 24 -30 26 -28 7 7 -9 48 -16 43 -5 -3 -11 -1 -15 5 -4 6 5 10 19 10 14 0
26 4 26 10 0 5 -7 7 -15 4 -9 -4 -15 0 -15 10 0 9 -4 16 -10 16 -5 0 -10 7
-10 15 0 9 -7 15 -16 13 -10 -2 -19 3 -21 10 -3 6 0 12 6 12 6 0 11 7 11 15 0
17 -16 21 -22 5z"/>
<path d="M2550 529 c6 -11 9 -40 7 -64 -3 -26 -1 -43 4 -39 10 6 12 84 3 108
-3 9 -10 16 -15 16 -6 0 -5 -9 1 -21z"/>
<path d="M2460 531 c0 -6 4 -13 10 -16 6 -3 7 1 4 9 -7 18 -14 21 -14 7z"/>
<path d="M1965 520 c-3 -5 -1 -10 4 -10 6 0 11 5 11 10 0 6 -2 10 -4 10 -3 0
-8 -4 -11 -10z"/>
<path d="M2260 520 c-13 -8 -12 -10 3 -10 9 0 17 5 17 10 0 12 -1 12 -20 0z"/>
<path d="M950 508 c0 -9 5 -20 10 -23 13 -8 13 5 0 25 -8 13 -10 13 -10 -2z"/>
<path d="M1221 490 c6 -16 18 -30 26 -30 12 0 12 2 -1 16 -9 8 -16 22 -16 30
0 8 -4 14 -9 14 -6 0 -6 -12 0 -30z"/>
<path d="M2052 499 c-2 -19 -44 -33 -73 -24 -15 5 -19 1 -19 -14 0 -12 5 -21
10 -21 6 0 10 4 10 8 0 5 7 9 15 9 18 0 20 -13 3 -21 -9 -3 -8 -8 5 -16 10 -7
22 -21 27 -33 8 -21 9 -20 9 6 1 15 -3 27 -9 27 -5 0 -10 4 -10 9 0 6 16 7 35
4 22 -4 35 -2 35 5 0 6 -6 9 -14 6 -11 -4 -16 4 -19 33 -2 21 -4 31 -5 22z"/>
<path d="M2534 489 c0 -10 4 -19 8 -19 4 0 8 6 8 14 0 8 -4 17 -8 20 -4 2 -8
-4 -8 -15z"/>
<path d="M2864 498 c-4 -7 -4 -10 1 -6 4 4 14 3 22 -4 11 -8 12 -7 7 6 -7 19
-20 21 -30 4z"/>
<path d="M2250 482 c0 -11 -3 -27 -6 -36 -4 -11 3 -19 22 -27 50 -21 52 -20
41 17 -8 27 -13 31 -24 23 -7 -6 -13 -10 -14 -8 0 2 -2 12 -4 22 -5 28 -15 34
-15 9z"/>
<path d="M2506 487 c3 -10 9 -15 12 -12 3 3 0 11 -7 18 -10 9 -11 8 -5 -6z"/>
<path d="M1121 473 c7 -12 15 -20 18 -17 3 2 -3 12 -13 22 -17 16 -18 16 -5
-5z"/>
<path d="M735 470 c3 -5 8 -10 11 -10 2 0 4 5 4 10 0 6 -5 10 -11 10 -5 0 -7
-4 -4 -10z"/>
<path d="M1346 473 c-7 -7 15 -53 25 -53 5 0 13 8 18 18 7 14 4 20 -14 29 -13
6 -26 8 -29 6z"/>
<path d="M770 454 c0 -8 5 -12 10 -9 6 4 8 11 5 16 -9 14 -15 11 -15 -7z"/>
<path d="M2385 460 c3 -5 11 -10 16 -10 6 0 7 5 4 10 -3 6 -11 10 -16 10 -6 0
-7 -4 -4 -10z"/>
<path d="M1571 434 c0 -11 3 -14 6 -6 3 7 2 16 -1 19 -3 4 -6 -2 -5 -13z"/>
<path d="M1465 405 c4 -22 12 -44 17 -50 6 -6 7 4 3 30 -4 22 -12 45 -17 50
-6 6 -7 -4 -3 -30z"/>
<path d="M2810 432 c0 -12 19 -26 26 -19 2 2 -2 10 -11 17 -9 8 -15 8 -15 2z"/>
<path d="M1236 413 c-6 -14 -5 -15 5 -6 7 7 10 15 7 18 -3 3 -9 -2 -12 -12z"/>
<path d="M2210 421 c0 -5 8 -19 18 -32 17 -20 19 -21 17 -3 0 11 -4 25 -9 32
-8 14 -26 16 -26 3z"/>
<path d="M2340 414 c0 -8 5 -12 10 -9 6 4 8 11 5 16 -9 14 -15 11 -15 -7z"/>
<path d="M1426 398 c16 -54 24 -68 39 -68 8 0 15 -5 15 -11 0 -5 5 -7 10 -4
17 11 11 23 -12 27 -17 2 -25 13 -32 41 -5 20 -14 37 -18 37 -5 0 -6 -10 -2
-22z"/>
<path d="M1501 404 c0 -11 3 -14 6 -6 3 7 2 16 -1 19 -3 4 -6 -2 -5 -13z"/>
<path d="M2394 409 c-3 -5 0 -9 6 -9 6 0 9 -4 6 -8 -2 -4 0 -14 6 -22 8 -12 9
-12 4 3 -4 12 1 21 17 27 24 10 23 11 -11 15 -12 1 -25 -2 -28 -6z"/>
<path d="M2510 410 c0 -5 5 -10 10 -10 6 0 10 5 10 10 0 6 -4 10 -10 10 -5 0
-10 -4 -10 -10z"/>
<path d="M1350 390 c6 -11 13 -20 16 -20 2 0 0 9 -6 20 -6 11 -13 20 -16 20
-2 0 0 -9 6 -20z"/>
<path d="M1541 394 c0 -11 3 -14 6 -6 3 7 2 16 -1 19 -3 4 -6 -2 -5 -13z"/>
<path d="M2072 398 c5 -15 28 -23 28 -10 0 5 -7 13 -16 16 -10 4 -14 1 -12 -6z"/>
<path d="M1674 369 c1 -33 1 -33 27 -19 28 15 25 48 -5 48 -19 0 -23 -5 -22
-29z m36 5 c0 -8 -5 -12 -10 -9 -6 4 -8 11 -5 16 9 14 15 11 15 -7z"/>
<path d="M2000 384 c0 -12 -11 -26 -25 -34 -13 -7 -22 -17 -18 -23 3 -5 9 -4
13 4 7 10 11 10 24 0 11 -9 16 -10 16 -2 0 6 -5 11 -12 11 -6 0 -3 9 7 20 14
16 16 23 7 32 -9 9 -12 7 -12 -8z"/>
<path d="M1225 380 c-3 -5 -1 -10 4 -10 6 0 11 5 11 10 0 6 -2 10 -4 10 -3 0
-8 -4 -11 -10z"/>
<path d="M1967 383 c-4 -3 -7 -11 -7 -17 0 -6 5 -5 12 2 6 6 9 14 7 17 -3 3
-9 2 -12 -2z"/>
<path d="M2115 380 c-3 -5 -2 -10 4 -10 5 0 13 5 16 10 3 6 2 10 -4 10 -5 0
-13 -4 -16 -10z"/>
<path d="M1105 370 c3 -5 11 -10 16 -10 6 0 7 5 4 10 -3 6 -11 10 -16 10 -6 0
-7 -4 -4 -10z"/>
<path d="M1230 353 c0 -4 5 -15 10 -23 8 -13 10 -13 10 2 0 9 -4 20 -10 23 -5
3 -10 3 -10 -2z"/>
<path d="M2033 333 c3 -17 10 -39 16 -50 9 -15 10 -11 8 20 -2 21 -9 43 -16
50 -10 10 -12 6 -8 -20z"/>
<path d="M2202 338 c2 -12 9 -24 17 -26 10 -3 12 0 7 13 -4 12 -2 16 8 12 10
-4 13 -1 9 9 -3 7 -14 14 -25 14 -14 0 -19 -6 -16 -22z"/>
<path d="M2380 345 c0 -8 2 -15 4 -15 2 0 6 7 10 15 3 8 1 15 -4 15 -6 0 -10
-7 -10 -15z"/>
<path d="M2171 323 c0 -17 -4 -39 -7 -47 -4 -12 -2 -15 9 -10 19 7 31 35 18
43 -5 3 -11 15 -14 26 -3 14 -5 10 -6 -12z"/>
<path d="M2485 340 c3 -5 8 -10 11 -10 2 0 4 5 4 10 0 6 -5 10 -11 10 -5 0 -7
-4 -4 -10z"/>
<path d="M1710 329 c0 -5 8 -17 18 -27 9 -10 22 -27 29 -38 8 -13 8 -6 -1 25
-8 27 -19 45 -29 47 -10 1 -17 -2 -17 -7z"/>
<path d="M2073 314 c0 -13 3 -27 8 -30 5 -3 6 2 3 10 -3 9 -1 16 5 16 16 0 14
17 -3 23 -9 4 -13 -2 -13 -19z"/>
<path d="M2600 329 c0 -5 5 -7 10 -4 6 3 10 8 10 11 0 2 -4 4 -10 4 -5 0 -10
-5 -10 -11z"/>
<path d="M1198 300 c2 -16 8 -30 13 -30 10 0 11 7 3 38 -9 33 -21 27 -16 -8z"/>
<path d="M1530 313 c0 -12 -5 -25 -11 -28 -6 -4 -8 -13 -5 -21 3 -8 1 -14 -5
-14 -20 0 16 -27 46 -34 l30 -8 -27 25 c-23 22 -25 27 -13 44 11 15 11 22 -1
38 -14 18 -14 18 -14 -2z"/>
<path d="M1260 315 c0 -3 7 -14 16 -23 15 -14 16 -14 13 3 -4 17 -29 35 -29
20z"/>
<path d="M2340 311 c0 -5 7 -12 16 -15 14 -5 15 -4 4 9 -14 17 -20 19 -20 6z"/>
<path d="M1355 300 c-3 -5 -1 -10 4 -10 6 0 11 5 11 10 0 6 -2 10 -4 10 -3 0
-8 -4 -11 -10z"/>
<path d="M1450 302 c0 -12 39 -60 40 -49 0 5 -9 20 -20 34 -11 14 -20 21 -20
15z"/>
<path d="M1950 300 c0 -5 5 -10 10 -10 6 0 10 5 10 10 0 6 -4 10 -10 10 -5 0
-10 -4 -10 -10z"/>
<path d="M1400 290 c0 -7 44 -40 55 -40 16 0 1 21 -25 34 -16 8 -30 11 -30 6z"/>
<path d="M1786 284 c-17 -12 -17 -14 -4 -14 9 0 20 5 23 11 11 17 2 18 -19 3z"/>
<path d="M1987 276 c-4 -9 -2 -16 4 -16 6 0 7 -6 3 -12 -5 -10 -4 -10 6 -1 8
7 9 16 3 28 -9 16 -11 16 -16 1z"/>
<path d="M2322 270 c-17 -27 -15 -35 4 -16 8 9 14 21 12 26 -2 6 -9 1 -16 -10z"/>
<path d="M1106 265 c4 -8 10 -15 15 -15 4 0 6 7 3 15 -4 8 -10 15 -15 15 -4 0
-6 -7 -3 -15z"/>
<path d="M1250 265 c0 -8 -5 -15 -11 -15 -7 0 -9 -10 -5 -26 6 -21 4 -25 -8
-21 -9 4 -16 4 -16 0 0 -10 34 -32 52 -33 15 0 15 3 3 27 -8 15 -11 39 -8 55
3 15 3 28 -1 28 -3 0 -6 -7 -6 -15z"/>
<path d="M1830 264 c0 -11 -6 -14 -16 -10 -9 4 -14 1 -12 -6 2 -6 12 -12 21
-14 10 -1 14 2 11 8 -4 7 -2 8 4 4 8 -5 9 -13 2 -26 -8 -14 -5 -19 11 -23 14
-4 19 -2 16 8 -3 7 -2 16 2 21 4 5 -3 19 -16 31 -18 18 -23 19 -23 7z"/>
<path d="M2266 271 c-4 -6 -2 -11 5 -11 9 0 9 -4 -1 -15 -6 -8 -9 -19 -6 -24
4 -5 -3 -16 -14 -24 -17 -11 -19 -19 -11 -38 l10 -24 7 23 c4 15 9 19 14 13 7
-13 40 -4 40 10 0 5 -7 9 -15 9 -8 0 -15 5 -15 10 0 6 7 10 15 10 8 0 15 5 15
11 0 6 -7 9 -15 5 -8 -3 -15 -1 -15 3 0 5 6 11 13 14 9 3 8 9 -4 22 -11 11
-19 13 -23 6z"/>
<path d="M1141 246 c-10 -12 -8 -13 8 -9 12 3 18 9 15 14 -7 12 -10 11 -23 -5z"/>
<path d="M2380 250 c0 -5 7 -10 15 -10 8 0 15 5 15 10 0 6 -7 10 -15 10 -8 0
-15 -4 -15 -10z"/>
<path d="M2170 245 c0 -5 5 -17 10 -25 5 -8 10 -10 10 -5 0 6 -5 17 -10 25 -5
8 -10 11 -10 5z"/>
<path d="M1980 210 c0 -19 3 -21 12 -12 9 9 9 15 0 24 -9 9 -12 7 -12 -12z"/>
<path d="M1180 210 c0 -5 5 -10 10 -10 6 0 10 5 10 10 0 6 -4 10 -10 10 -5 0
-10 -4 -10 -10z"/>
<path d="M1650 203 c0 -5 5 -15 10 -23 8 -12 10 -11 10 8 0 12 -4 22 -10 22
-5 0 -10 -3 -10 -7z"/>
<path d="M2340 201 c0 -5 5 -13 10 -16 6 -3 10 -2 10 4 0 5 -4 13 -10 16 -5 3
-10 2 -10 -4z"/>
<path d="M1300 160 c19 -13 30 -13 30 0 0 6 -10 10 -22 10 -19 0 -20 -2 -8
-10z"/>
<path d="M1710 165 c0 -5 5 -17 10 -25 5 -8 10 -10 10 -5 0 6 -5 17 -10 25 -5
8 -10 11 -10 5z"/>
<path d="M1586 137 c3 -10 9 -15 12 -12 3 3 0 11 -7 18 -10 9 -11 8 -5 -6z"/>
<path d="M1795 133 c-4 -10 -9 -27 -10 -37 -2 -18 -1 -18 12 -1 12 17 18 55 9
55 -2 0 -7 -8 -11 -17z"/>
<path d="M1658 123 c-16 -2 -28 -8 -28 -12 0 -15 35 -18 48 -4 7 7 17 11 23 8
5 -4 9 -1 9 4 0 11 -3 11 -52 4z"/>
<path d="M2150 1251 c0 -5 5 -13 10 -16 6 -3 10 -2 10 4 0 5 -4 13 -10 16 -5
3 -10 2 -10 -4z"/>
<path d="M2136 1204 c-5 -14 -4 -15 9 -4 17 14 19 20 6 20 -5 0 -12 -7 -15
-16z"/>
<path d="M765 1071 c-3 -5 -1 -12 5 -16 5 -3 10 1 10 9 0 18 -6 21 -15 7z"/>
<path d="M730 960 c0 -5 5 -10 10 -10 6 0 10 5 10 10 0 6 -4 10 -10 10 -5 0
-10 -4 -10 -10z"/>
<path d="M620 1060 c0 -5 5 -10 10 -10 6 0 10 5 10 10 0 6 -4 10 -10 10 -5 0
-10 -4 -10 -10z"/>
<path d="M1244 954 c-2 -23 -1 -24 11 -7 7 10 11 21 9 25 -10 16 -19 7 -20
-18z"/>
<path d="M1122 830 c-19 -8 -21 -13 -12 -29 6 -13 16 -18 27 -14 14 6 14 8 -3
20 -18 13 -17 14 9 8 22 -6 26 -4 21 9 -7 18 -10 18 -42 6z"/>
</g>
</svg>
